<svg width="96" height="41" viewBox="0 0 96 41" fill="none" xmlns="http://www.w3.org/2000/svg">
<path d="M41.3916 20.5087C41.3916 18.057 40.9218 15.7179 40.1 13.5471C39.881 20.6879 32.5257 26.2183 28.2069 29.8783H39.0179C40.5297 27.0828 41.3916 23.8962 41.3916 20.5087ZM33.5759 4.78407C30.1544 2.15322 25.8627 0.57325 21.1872 0.57325C10.03 0.57325 0.985107 9.49855 0.985107 20.5087C0.985107 31.5188 10.03 40.4441 21.1872 40.4441C26.2983 40.4441 30.9515 38.559 34.5073 35.4717H19.8802L19.8367 31.2319C28.6496 23.6722 34.0528 18.5594 34.0528 13.621C34.0528 11.7856 33.344 9.46949 30.1567 9.46949C27.6323 9.46949 25.1963 10.9126 25.6378 16.9419H20.5019C19.2162 9.95135 23.0699 4.39907 30.4216 4.39907C31.559 4.39907 32.6151 4.53467 33.5759 4.78407Z" fill="#606579"/>
<path d="M59.8194 14.3523H64.5985C64.761 10.765 63.5365 5.08197 55.6537 5.08197C49.8538 5.08197 45.6445 8.50826 45.6445 15.6417C45.6445 16.6091 45.6857 21.6068 45.6857 24.7111C45.6857 32.4487 51.1195 34.1425 55.6938 34.1425C58.4312 34.1425 62.3921 33.5371 64.2312 31.5624V19.229H55.2452V23.7038H59.2484V29.1435C56.2248 30.1508 50.7109 30.5551 50.7109 23.7038V15.6417C50.7109 10.8461 52.9574 9.1923 55.4477 9.1923C58.0227 9.1923 59.8194 10.4829 59.8194 14.3523ZM95.3643 26.3237C95.5704 15.2797 82.7448 18.9469 82.8673 12.7796C82.9073 10.604 84.3379 9.1923 86.6656 9.1923C89.1559 9.1923 90.6276 10.6439 90.5852 14.4334H95.2831C95.4067 11.0059 94.5908 5.16188 86.8305 5.16188C82.0101 5.16188 78.047 7.50095 77.9657 12.6997C77.7608 23.2994 90.6676 19.8344 90.4628 26.2414C90.3815 28.8614 88.4624 30.0297 86.2971 30.0297C83.7657 30.0297 81.7228 28.5793 82.1314 24.2268H77.3923C76.8625 29.9897 79.4363 34.1025 86.2571 34.1025C92.0158 34.1025 95.2831 30.9571 95.3643 26.3237ZM73.7882 33.7381H68.9679V5.52509H73.7882V33.7381ZM73.7882 33.7381H68.9679V5.52509H73.7882V33.7381Z" fill="#606579"/>
</svg>
