<svg width="189" height="32" viewBox="0 0 189 32" fill="none" xmlns="http://www.w3.org/2000/svg">
<path d="M73.8638 3.4451C73.8638 1.85739 75.1442 0.57321 76.7204 0.57321C78.302 0.57321 79.5874 1.85739 79.5874 3.4451C79.5874 5.03075 78.302 6.31628 76.7204 6.31628C75.1442 6.31628 73.8638 5.03075 73.8638 3.4451Z" fill="#606579"/>
<path d="M119.253 22.4768C119.253 20.8885 120.533 19.6029 122.109 19.6029C123.69 19.6029 124.975 20.8885 124.975 22.4768C124.975 24.0611 123.69 25.348 122.109 25.348C120.533 25.348 119.253 24.0611 119.253 22.4768Z" fill="#606579"/>
<path d="M26.8909 21.306C24.4259 21.306 22.7129 19.3467 22.7129 16.5469C22.7129 13.7479 24.4259 11.79 26.8909 11.79C29.3699 11.79 31.1017 13.7479 31.1017 16.5469C31.1017 19.3909 29.406 21.306 26.8909 21.306ZM26.8909 7.60737C21.676 7.60737 17.8914 11.368 17.8914 16.5469C17.8914 21.7259 21.676 25.4858 26.8909 25.4858C32.1253 25.4858 35.9256 21.7259 35.9256 16.5469C35.9256 11.368 32.1253 7.60737 26.8909 7.60737Z" fill="#606579"/>
<path d="M68.3205 16.9939C68.1178 16.6121 67.8853 16.2888 67.6378 16.0323L67.4801 15.8648L67.6461 15.7056C67.8854 15.4531 68.1301 15.1537 68.3661 14.8066L72.9681 7.9597H67.3815L63.9237 13.3155C63.728 13.6027 63.3328 13.7477 62.7413 13.7477H61.9532V3.62194C61.9532 1.59665 60.6925 1.32103 59.3306 1.32103H56.999L57.0029 25.2223H61.9532V18.0528H62.4169C62.9812 18.0528 63.3655 18.1181 63.5417 18.425L66.2725 23.5835C67.0353 24.9834 67.7955 25.2223 69.2256 25.2223H73.0192L70.1938 20.5449L68.3205 16.9939Z" fill="#606579"/>
<path d="M92.352 7.56932C89.834 7.56932 88.2274 8.68881 87.3271 9.63545L87.0265 9.93965L86.9205 9.52589C86.656 8.51187 85.7645 7.95383 84.4229 7.95383H82.2043L82.2182 25.2164H87.1348V17.2602C87.1348 16.4824 87.2359 15.8073 87.4414 15.1914C87.9887 13.3274 89.5153 12.1684 91.4233 12.1684C92.958 12.1684 93.5577 12.9789 93.5577 15.0737V22.5923C93.5577 24.3801 94.3839 25.2164 96.1715 25.2164H98.5113L98.5034 14.2373C98.5034 9.875 96.3776 7.56932 92.3535 7.56932" fill="#606579"/>
<path d="M76.7857 7.96119H74.4553L74.4713 21.3086H74.4697V25.2204H76.9571C76.9884 25.2204 77.0135 25.2238 77.0448 25.2238L78.2034 25.2204H79.3567V25.2136H79.3647L79.3747 10.582C79.3747 8.81664 78.5314 7.96121 76.7874 7.96121" fill="#606579"/>
<path d="M46.203 21.306C43.7382 21.306 42.0219 19.3467 42.0219 16.5469C42.0219 13.7479 43.7382 11.79 46.203 11.79C48.6769 11.79 50.4135 13.7479 50.4135 16.5469C50.4135 19.3909 48.7183 21.306 46.203 21.306ZM46.203 7.60737C40.9829 7.60737 37.1975 11.368 37.1975 16.5469C37.1975 21.7259 40.9829 25.4858 46.203 25.4858C51.432 25.4858 55.2386 21.7259 55.2386 16.5469C55.2386 11.368 51.432 7.60737 46.203 7.60737Z" fill="#606579"/>
<path d="M151.59 21.306C149.126 21.306 147.408 19.3467 147.408 16.5469C147.408 13.7479 149.126 11.79 151.59 11.79C154.064 11.79 155.802 13.7479 155.802 16.5469C155.802 19.3909 154.106 21.306 151.59 21.306ZM151.59 7.60737C146.371 7.60737 142.585 11.368 142.585 16.5469C142.585 21.7259 146.371 25.4858 151.59 25.4858C156.819 25.4858 160.625 21.7259 160.625 16.5469C160.625 11.368 156.819 7.60737 151.59 7.60737Z" fill="#606579"/>
<path d="M108.87 20.5464C106.182 20.5464 105.225 18.1992 105.225 15.9997C105.225 15.0307 105.47 11.8723 108.612 11.8723C110.173 11.8723 112.254 12.32 112.254 16.1624C112.254 19.7863 110.412 20.5464 108.87 20.5464ZM114.806 7.91492C113.873 7.91492 113.155 8.28717 112.796 8.96704L112.66 9.23107L112.432 9.03304C111.638 8.34569 110.215 7.53041 107.905 7.53041C103.307 7.53041 100.212 10.9862 100.212 16.129C100.212 21.2658 103.415 24.8556 107.997 24.8556C109.562 24.8556 110.799 24.4901 111.78 23.747L112.159 23.4619V23.9416C112.159 26.2473 110.669 27.5192 107.969 27.5192C106.656 27.5192 105.462 27.1994 104.663 26.9095C103.619 26.5944 103.008 26.855 102.585 27.9024L102.195 28.8688L101.643 30.2802L101.985 30.4626C103.713 31.3806 105.963 31.9285 107.997 31.9285C112.184 31.9285 117.073 29.7834 117.073 23.747L117.091 7.91492H114.807" fill="#606579"/>
<path d="M8.58052 21.108L4.57827 21.1041V16.3151C4.57827 15.2916 4.97473 14.7594 5.85112 14.6369H8.58052C10.5286 14.6369 11.7873 15.8666 11.7887 17.8558C11.7873 19.8975 10.5599 21.1068 8.58052 21.1081V21.108ZM4.57827 8.18933V6.92897C4.57827 5.82582 5.04467 5.30113 6.06815 5.23375H8.11605C9.87242 5.23375 10.9244 6.28586 10.9244 8.04574C10.9244 9.38777 10.2043 10.9537 8.18065 10.9537H4.57827V8.18933ZM13.692 12.9688L12.9684 12.5618L13.6 12.0215C14.3345 11.3892 15.5659 9.96828 15.5659 7.51289C15.5659 3.75629 12.6544 1.33152 8.14805 1.33152H3.00543V1.33016H2.41991C1.0839 1.37918 0.0149487 2.46666 0 3.8121V25.1355H2.36006C2.36604 25.1368 2.36804 25.1355 2.37004 25.1368L8.24963 25.1355C13.259 25.1355 16.4923 22.4065 16.4923 18.1797C16.4923 15.904 15.4473 13.9583 13.6909 12.9688" fill="#606579"/>
<path d="M182.588 7.62518C180.548 7.62518 178.576 8.58133 177.31 10.1847L176.954 10.6366L176.674 10.1309C175.764 8.46905 174.196 7.62518 172.017 7.62518C169.732 7.62518 168.199 8.90118 167.487 9.65999L167.021 10.165L166.842 9.50074C166.582 8.54459 165.731 8.01784 164.443 8.01784H162.376L162.356 25.2137H167.052V17.623C167.052 16.9581 167.134 16.3 167.301 15.612C167.749 13.7779 168.981 11.8051 171.051 12.0024C172.328 12.1249 172.952 13.1124 172.952 15.0199V25.2137H177.68V17.623C177.68 16.7921 177.758 16.17 177.945 15.546C178.326 13.795 179.612 11.9997 181.609 11.9997C183.055 11.9997 183.59 12.8191 183.59 15.0199V22.6998C183.59 24.4372 184.364 25.2137 186.099 25.2137H188.309L188.312 14.236C188.312 9.85055 186.383 7.62518 182.587 7.62518" fill="#606579"/>
<path d="M139.867 19.2432C139.853 19.2601 137.832 21.3923 135.172 21.3923C132.749 21.3923 130.3 19.904 130.3 16.5816C130.3 13.7131 132.199 11.7082 134.916 11.7082C135.799 11.7082 136.802 12.0247 136.959 12.5569L136.982 12.6467C137.344 13.8533 138.44 13.918 138.655 13.918L141.228 13.9208V11.6702C141.228 8.7017 137.455 7.62508 134.916 7.62508C129.487 7.62508 125.548 11.4082 125.548 16.6177C125.548 21.8252 129.444 25.6029 134.817 25.6029C139.478 25.6029 142.013 22.5364 142.037 22.5058L142.172 22.3397L140.135 18.9574L139.867 19.2433" fill="#606579"/>
</svg>
