<svg width="148" height="30" viewBox="0 0 148 30" fill="none" xmlns="http://www.w3.org/2000/svg">
<path d="M76.3266 14.7816C75.1073 14.7816 74.2284 15.1818 73.3375 15.5897V24.8157C74.191 24.8972 74.6802 24.8972 75.4904 24.8972C78.4169 24.8972 78.818 23.5557 78.818 21.6824V17.2756C78.818 15.8927 78.3595 14.7816 76.3266 14.7816ZM56.8923 14.2782C54.8621 14.2782 54.3983 15.3943 54.3983 16.7759V17.5522H59.3833V16.7759C59.3833 15.3943 58.9201 14.2782 56.8923 14.2782ZM19.2442 23.8817C19.2442 24.9747 19.7594 25.5426 20.8966 25.5426C22.1166 25.5426 22.8387 25.1444 23.729 24.7356V22.5469H21.0615C19.7991 22.5469 19.2442 22.782 19.2442 23.8817ZM95.2314 14.7816C93.1979 14.7816 92.4932 15.8927 92.4932 17.2756V22.3237C92.4932 23.7107 93.1979 24.8251 95.2314 24.8251C97.2596 24.8251 97.9697 23.7107 97.9697 22.3237V17.2756C97.9697 15.8927 97.2596 14.7816 95.2314 14.7816ZM9.27792 29.5418H3.29989V15.0559H0.312378V10.0642H3.29989V7.06712C3.29989 2.99475 4.98602 0.573242 9.77779 0.573242H13.7674V5.56591H11.2737C9.40806 5.56591 9.28526 6.26341 9.28526 7.56552L9.27792 10.0642H13.7954L13.2668 15.0559H9.27792V29.5418ZM29.7093 29.5792H24.727L24.5111 28.3179C22.2361 29.5792 20.2056 29.7837 18.8661 29.7837C15.2122 29.7837 13.2668 27.3398 13.2668 23.9606C13.2668 19.9734 15.5363 18.5503 19.5966 18.5503H23.729V17.6885C23.729 15.6538 23.4961 15.0559 20.3697 15.0559H15.258L15.7578 10.0642H21.3454C28.2054 10.0642 29.7093 12.2335 29.7093 17.7286V29.5792ZM46.6527 15.422C43.5521 14.8902 42.6618 14.7733 41.1699 14.7733C38.49 14.7733 37.6802 15.3652 37.6802 17.6431V21.9523C37.6802 24.2305 38.49 24.8251 41.1699 24.8251C42.6618 24.8251 43.5521 24.7062 46.6527 24.1717V29.0408C43.9368 29.6501 42.1676 29.8104 40.672 29.8104C34.2535 29.8104 31.7021 26.4312 31.7021 21.5501V18.0533C31.7021 13.1678 34.2535 9.78293 40.672 9.78293C42.1676 9.78293 43.9368 9.94394 46.6527 10.5559V15.422ZM65.3613 21.5501H54.3983V21.9523C54.3983 24.2305 55.2088 24.8251 57.888 24.8251C60.2966 24.8251 61.7665 24.7062 64.8614 24.1717V29.0408C61.8766 29.6501 60.3213 29.8104 57.3925 29.8104C50.9736 29.8104 48.4209 26.4312 48.4209 21.5501V17.5522C48.4209 13.2814 50.3149 9.78293 56.8923 9.78293C63.4696 9.78293 65.3613 13.2407 65.3613 17.5522V21.5501ZM84.795 21.6423C84.795 26.3604 83.4482 29.8011 75.2882 29.8011C72.3417 29.8011 70.6132 29.5418 67.3611 29.0408V2.07211L73.3375 1.07365V10.5071C74.6288 10.0268 76.3006 9.78293 77.8222 9.78293C83.7993 9.78293 84.795 12.4653 84.795 16.7759V21.6423ZM103.953 21.7452C103.953 25.8152 102.274 29.7623 95.2515 29.7623C88.2253 29.7623 86.5155 25.8152 86.5155 21.7452V17.8154C86.5155 13.7434 88.2253 9.79562 95.2515 9.79562C102.274 9.79562 103.953 13.7434 103.953 17.8154V21.7452ZM123.097 21.7452C123.097 25.8152 121.417 29.7623 114.395 29.7623C107.369 29.7623 105.659 25.8152 105.659 21.7452V17.8154C105.659 13.7434 107.369 9.79562 114.395 9.79562C121.417 9.79562 123.097 13.7434 123.097 17.8154V21.7452ZM142.744 29.5418H136.266L130.787 20.3863V29.5418H124.809V2.07211L130.787 1.07365V18.7574L136.266 10.0642H142.744L136.763 19.5511L142.744 29.5418ZM114.375 14.7816C112.345 14.7816 111.64 15.8927 111.64 17.2756V22.3237C111.64 23.7107 112.345 24.8251 114.375 24.8251C116.403 24.8251 117.12 23.7107 117.12 22.3237V17.2756C117.12 15.8927 116.403 14.7816 114.375 14.7816Z" fill="#606579"/>
<path d="M146.156 26.1249C147.163 26.1249 147.965 26.9466 147.965 27.9728C147.965 29.0151 147.163 29.8275 146.149 29.8275C145.14 29.8275 144.322 29.0151 144.322 27.9728C144.322 26.9466 145.14 26.1249 146.149 26.1249H146.156ZM146.149 26.4122C145.338 26.4122 144.674 27.111 144.674 27.9728C144.674 28.8507 145.338 29.5402 146.156 29.5402C146.975 29.5482 147.629 28.8507 147.629 27.9809C147.629 27.111 146.975 26.4122 146.156 26.4122H146.149ZM145.805 29.0485H145.476V26.9867C145.648 26.9627 145.813 26.9386 146.058 26.9386C146.37 26.9386 146.573 27.0041 146.698 27.0936C146.819 27.1845 146.884 27.3234 146.884 27.5199C146.884 27.7924 146.705 27.9555 146.485 28.0223V28.0383C146.664 28.0717 146.787 28.2347 146.828 28.538C146.876 28.8587 146.926 28.9817 146.958 29.0485H146.615C146.566 28.9817 146.517 28.7933 146.475 28.522C146.427 28.2601 146.295 28.1612 146.032 28.1612H145.805V29.0485ZM145.805 27.9074H146.042C146.311 27.9074 146.54 27.8085 146.54 27.5533C146.54 27.3729 146.41 27.1925 146.042 27.1925C145.935 27.1925 145.861 27.2005 145.805 27.2085V27.9074Z" fill="#606579"/>
</svg>
