<svg width="189" height="48" viewBox="0 0 189 48" fill="none" xmlns="http://www.w3.org/2000/svg">
<path d="M87.4977 16.6049H84.0986C83.8694 16.6049 83.6785 16.8005 83.6785 17.0353V25.9569C83.6785 27.4047 83.1056 28.1872 81.8071 28.1872C80.5086 28.1872 79.9357 27.4047 79.9357 25.9569V17.0353C79.9357 16.8005 79.7829 16.6049 79.5156 16.6049H76.0783C75.8492 16.6049 75.6582 16.8005 75.6582 17.0353V26.8177C75.6582 29.8307 77.7969 32.2959 81.7689 32.2959C85.779 32.2959 87.956 29.8698 87.956 26.8177V17.0353C87.956 16.8005 87.765 16.6049 87.4977 16.6049Z" fill="#606579"/>
<path d="M112.17 22.8655L109.687 22.0046C108.962 21.7307 108.885 21.3394 108.885 21.0655C108.885 20.6742 109.267 20.2829 109.993 20.2829C110.795 20.2829 111.941 20.5177 113.048 21.3785C113.201 21.4959 113.43 21.4959 113.545 21.3394L115.454 18.8742C115.569 18.7177 115.569 18.4829 115.416 18.3264C113.774 16.9177 111.788 16.4091 109.955 16.4091C106.403 16.4091 104.264 18.6786 104.264 21.1437C104.264 23.0611 105.372 24.8611 107.701 25.6437L109.878 26.4262C110.948 26.8175 111.138 27.0915 111.138 27.561C111.138 27.9914 110.718 28.461 109.84 28.461C108.618 28.461 107.205 27.7175 106.25 26.8958C106.097 26.7784 105.868 26.7784 105.753 26.9349L103.806 29.5958C103.691 29.7523 103.691 29.9871 103.844 30.1436C105.257 31.3957 107.358 32.3348 110.031 32.3348C113.354 32.3348 115.798 30.3392 115.798 27.3654C115.798 25.2915 114.538 23.6872 112.17 22.8655Z" fill="#606579"/>
<path d="M96.5873 23.1786H94.3722V20.5178H96.5873C97.8476 20.5178 98.3059 21.1047 98.3059 21.8482C98.3059 22.5916 97.8094 23.1786 96.5873 23.1786ZM99.9482 26.2698C101.781 25.3307 102.698 23.922 102.698 21.7699C102.698 19.07 100.559 16.6439 96.931 16.6439H90.4002C90.1711 16.6439 90.0183 16.8787 90.0183 17.0743V31.6306C90.0183 31.8654 90.2093 32.0219 90.4002 32.0219H93.9139C94.143 32.0219 94.2958 31.8262 94.2958 31.6306V26.935H95.6707L98.1532 31.6697C98.2677 31.8654 98.4969 32.0219 98.726 32.0219H102.774C103.004 32.0219 103.08 31.8654 102.965 31.6697L99.9482 26.2698Z" fill="#606579"/>
<path d="M57.3644 16.6049H47.1671C46.8616 16.6049 46.6707 16.8396 46.6707 17.0744V31.5524C46.6707 31.7872 46.8616 31.9828 47.0908 31.9828H50.528C50.7572 31.9828 50.9099 31.748 50.9099 31.5524V26.8568H55.2638C55.493 26.8568 55.6839 26.7003 55.7221 26.4655L56.3714 23.2569C56.4096 23.0613 56.3332 22.8656 56.0658 22.8656H50.9481V20.5178H56.7151C56.9443 20.5178 57.1352 20.3613 57.1734 20.1265L57.7845 17.1135C57.8227 16.8788 57.6699 16.6049 57.3644 16.6049Z" fill="#606579"/>
<path d="M187.904 20.5569C188.133 20.5569 188.324 20.4004 188.362 20.1656L188.973 17.1526C189.012 16.8787 188.973 16.6439 188.592 16.6439H178.318C178.012 16.6439 177.86 16.8787 177.86 17.1135V31.5915C177.86 31.8262 178.051 32.0219 178.28 32.0219H187.637C187.866 32.0219 188.057 31.8654 188.095 31.6306L188.706 28.6176C188.744 28.3437 188.706 28.1089 188.324 28.1089H182.099V26.3481H186.453C186.682 26.3481 186.873 26.1916 186.911 25.9568L187.56 22.7481C187.599 22.5525 187.522 22.3569 187.255 22.3569H182.099V20.596H187.904V20.5569Z" fill="#606579"/>
<path d="M154.448 25.3308H153.073L154.448 20.6352L155.823 25.3308H154.448ZM157.274 16.957C157.236 16.7614 157.007 16.6049 156.816 16.6049H152.118C151.927 16.6049 151.698 16.7614 151.66 16.957L147.344 31.6307C147.268 31.8263 147.383 32.022 147.612 32.022H151.469C151.66 32.022 151.889 31.8263 151.927 31.6307L152.538 29.4003H156.396L157.045 31.6307C157.083 31.8263 157.312 32.022 157.503 32.022H161.323C161.514 32.022 161.628 31.8263 161.59 31.6307L157.274 16.957Z" fill="#606579"/>
<path d="M146.161 16.6049H142.761C142.532 16.6049 142.341 16.8005 142.341 17.0353V25.9569C142.341 27.4047 141.768 28.1872 140.47 28.1872C139.171 28.1872 138.599 27.4047 138.599 25.9569V17.0353C138.599 16.8005 138.446 16.6049 138.178 16.6049H134.779C134.55 16.6049 134.359 16.8005 134.359 17.0353V26.8177C134.359 29.8307 136.498 32.2959 140.47 32.2959C144.48 32.2959 146.657 29.8698 146.657 26.8177V17.0353C146.581 16.8005 146.39 16.6049 146.161 16.6049Z" fill="#606579"/>
<path d="M169.648 23.1786H167.433V20.5178H169.648C170.87 20.5178 171.367 21.1047 171.367 21.8482C171.367 22.5916 170.87 23.1786 169.648 23.1786ZM173.009 26.2698C174.842 25.3307 175.759 23.922 175.759 21.7699C175.759 19.07 173.62 16.6439 169.992 16.6439H163.461C163.232 16.6439 163.079 16.8787 163.079 17.0743V31.6306C163.079 31.8654 163.27 32.0219 163.461 32.0219H166.975C167.204 32.0219 167.357 31.8262 167.357 31.6306V26.935H168.732L171.214 31.6697C171.329 31.8654 171.558 32.0219 171.787 32.0219H175.835C176.065 32.0219 176.141 31.8654 176.026 31.6697L173.009 26.2698Z" fill="#606579"/>
<path d="M124.696 28.2263C122.749 28.2263 121.412 26.4654 121.412 24.3133C121.412 22.1612 122.749 20.4003 124.696 20.4003C126.644 20.4003 127.981 22.1612 127.981 24.3133C127.981 26.5045 126.644 28.2263 124.696 28.2263ZM132.488 30.1045C131.991 30.3001 131.113 30.5349 130.081 30.3001C130.234 30.1436 130.387 30.0262 130.54 29.8697C132.564 27.6784 133.137 24.3915 132.144 21.5742C131.113 18.6786 128.401 16.683 125.384 16.4482C122.329 16.2134 119.235 17.7395 117.784 20.4394C116.256 23.2959 116.523 27.0524 118.624 29.5567C120.419 31.7088 123.283 32.6088 125.919 32.2175C125.957 32.2566 125.995 32.2957 126.033 32.3349C127.523 33.7435 129.891 34.5653 131.953 34.5653L132.793 30.3393C132.793 30.1827 132.679 30.0262 132.488 30.1045Z" fill="#606579"/>
<path d="M66.0338 28.2262C64.086 28.2262 62.7493 26.4654 62.7493 24.3132C62.7493 22.1611 64.086 20.4003 66.0338 20.4003C67.9816 20.4003 69.3183 22.1611 69.3183 24.3132C69.3565 26.5045 68.0198 28.2262 66.0338 28.2262ZM66.7213 16.409C63.6659 16.1743 60.5724 17.7003 59.1211 20.4003C57.5934 23.2567 57.8608 27.0132 59.9613 29.5175C62.9403 33.0783 68.7454 33.1957 71.8772 29.8305C73.9013 27.6393 74.4742 24.3524 73.4812 21.535C72.4501 18.6394 69.7384 16.6829 66.7213 16.409Z" fill="#606579"/>
<path d="M28.1659 7.36181L27.0741 12.7991C26.9493 13.3782 26.419 13.893 25.7639 13.893H16.281C15.2204 13.893 14.347 14.7938 14.347 15.8877V17.0781C14.347 18.172 15.2204 19.0729 16.281 19.0729H24.2978C25.0465 19.0729 25.6703 19.8129 25.5144 20.6172C25.3584 21.4537 24.5162 25.7006 24.4226 26.151C24.3602 26.6336 23.8611 27.2449 23.1125 27.2449H16.5618C15.1892 27.2771 14.9085 27.3092 14.0974 28.3388C13.2864 29.3683 6.11182 38.6343 6.11182 38.6343C6.04944 38.7308 5.98705 38.6986 5.98705 38.6021V7.10442C5.98705 6.36443 6.57973 5.75314 7.29719 5.75314H26.9805C27.6668 5.75314 28.353 6.46096 28.1659 7.36181ZM29.6008 0.573242C29.6008 0.573242 8.66972 0.573242 5.30078 0.573242C1.96305 0.573242 0.964844 3.17928 0.964844 4.82012V44.6507C0.964844 46.6132 1.93185 47.1923 2.46215 47.4176C2.99244 47.6428 4.39616 47.8036 5.39437 46.7741C5.39437 46.7741 16.9361 32.9074 17.1232 32.6822C17.3104 32.457 17.404 32.457 17.5288 32.457C17.6535 32.457 22.4262 32.457 24.8281 32.457C27.9475 32.457 28.5402 30.237 28.8833 28.8857C29.1641 27.7597 32.377 11.673 33.3752 6.58965C34.1239 2.66451 33.1569 0.573242 29.6008 0.573242Z" fill="#606579"/>
</svg>
