<svg width="130" height="53" viewBox="0 0 130 53" fill="none" xmlns="http://www.w3.org/2000/svg">
<path d="M28.2366 4.61847C27.1691 5.59948 26.1017 6.58049 24.9961 7.61246C23.738 6.4276 22.1623 5.51029 20.3705 4.96246C13.6989 2.94948 6.51908 7.33217 5.34997 14.212C4.53667 19.0151 5.98535 23.0666 9.81038 26.137C11.6276 27.5894 13.7498 28.3283 16.0626 28.5067C18.2991 28.6723 20.4594 28.3793 22.4673 27.3473C25.4155 25.8567 27.1437 23.4615 27.6647 20.1872C27.6901 19.9961 27.6901 19.8178 27.7028 19.5375C24.1193 19.5375 20.5738 19.5375 16.9902 19.5375C16.9902 18.0086 16.9902 16.5562 16.9902 15.0656C17.219 15.0528 17.3969 15.0401 17.5875 15.0401C22.2258 15.0401 26.8641 15.0528 31.5025 15.0274C31.9853 15.0274 32.176 15.1675 32.2268 15.6389C32.8114 21.6779 31.2356 26.825 26.0636 30.4432C23.1789 32.4562 19.913 33.1569 16.4311 33.0423C9.28936 32.813 2.99904 28.1245 0.940389 21.2574C-0.838691 15.3077 0.457496 9.91847 4.66375 5.38289C9.14958 0.643466 14.6774 -0.88538 21.0186 0.477841C23.5474 1.01294 26.8514 2.924 28.2366 4.61847Z" fill="#606579"/>
<path d="M81.1642 36.342C82.4858 35.7941 83.7692 35.259 85.1163 34.6857C85.2306 34.9023 85.345 35.0934 85.4467 35.2845C87.0605 38.4569 91.2668 39.4761 94.0879 37.3739C95.0283 36.6732 95.651 35.7177 95.867 34.5965C96.1084 33.3225 96.172 32.0102 96.3245 30.5833C96.0576 30.6852 95.9686 30.698 95.9178 30.7489C93.7956 32.9403 91.2033 33.5136 88.344 32.8001C84.2267 31.7682 81.5581 29.08 80.5923 24.9776C79.5503 20.5057 80.91 16.6963 84.5571 13.8552C87.1622 11.8295 90.1104 11.1797 93.2746 12.3264C94.1006 12.6321 94.825 13.2437 95.5874 13.7278C95.7526 13.8297 95.8924 14.0081 96.1593 14.2629C96.1593 13.5749 96.1593 13.0398 96.1593 12.4792C97.6588 12.4792 99.0693 12.4792 100.556 12.4792C100.569 12.6958 100.582 12.9124 100.582 13.1417C100.582 19.2699 100.582 25.4107 100.582 31.5389C100.582 33.4626 100.315 35.361 99.5522 37.1319C98.3704 39.8583 96.299 41.591 93.4144 42.279C90.1739 43.0562 87.1114 42.6485 84.3792 40.61C82.9814 39.5398 81.6725 37.8326 81.1642 36.342ZM96.477 22.9264C96.5659 21.6778 96.388 20.5566 95.9432 19.4865C94.3802 15.7917 89.996 14.798 87.0097 17.4607C84.4301 19.754 84.1886 24.1112 86.476 26.8631C88.5346 29.3475 92.2834 29.5896 94.6089 27.3473C95.8543 26.1369 96.4642 24.5953 96.477 22.9264Z" fill="#606579"/>
<path d="M67.6559 33.0804C61.7341 33.0677 57.0195 28.3792 57.0323 22.5059C57.045 16.3905 61.6324 11.7148 67.7449 11.753C73.7937 11.7913 78.4448 16.3396 78.3812 22.5569C78.3304 28.6978 73.4633 33.1314 67.6559 33.0804ZM73.8064 22.404C73.654 21.6396 73.565 20.8497 73.3109 20.1235C72.5103 17.8302 70.9218 16.3651 68.4946 16.0593C65.9785 15.7408 63.9834 16.7218 62.6491 18.9259C61.5943 20.684 61.5181 22.5696 62.0137 24.5062C62.7634 27.4619 65.9912 29.4367 68.9394 28.7487C71.824 28.0607 73.7048 25.5636 73.8064 22.404Z" fill="#606579"/>
<path d="M55.1643 22.506C55.177 28.4176 50.4878 33.0678 44.5152 33.0806C38.568 33.0933 33.8661 28.4303 33.8534 22.506C33.8407 16.4671 38.4663 11.7914 44.4771 11.7914C50.5768 11.7914 55.1516 16.3779 55.1643 22.506ZM44.5025 28.889C45.7987 28.9017 47.0313 28.494 48.0352 27.6914C50.0685 26.0733 50.7166 23.9202 50.4497 21.4104C50.0049 17.3462 46.002 14.9 42.2278 16.4034C39.4321 17.5118 37.8691 20.9772 38.6951 24.1623C39.4575 27.0289 41.7195 28.8635 44.5025 28.889Z" fill="#606579"/>
<path d="M129.924 19.7668C125.197 21.7288 120.495 23.6781 115.793 25.6274C117.153 29.4495 123.443 30.4305 126.15 25.9841C127.331 26.7613 128.501 27.5512 129.733 28.3538C128.895 29.5769 127.865 30.5961 126.645 31.3988C122.541 34.1125 116.809 33.5137 113.416 29.9719C110.913 27.3601 110.151 24.1495 110.608 20.6332C110.951 18.0851 112.044 15.9192 113.95 14.1738C117.496 10.9122 123.43 11.0396 126.81 14.4541C128.297 15.9447 129.225 17.7411 129.924 19.7668ZM124.472 18.1615C123.595 16.174 121.143 15.3841 118.792 16.2122C116.085 17.155 114.649 20.1872 115.094 22.0728C118.207 20.7733 121.321 19.4738 124.472 18.1615Z" fill="#606579"/>
<path d="M108.346 32.4053C106.796 32.4053 105.309 32.4053 103.771 32.4053C103.771 21.9837 103.771 11.5748 103.771 1.14038C105.296 1.14038 106.796 1.14038 108.346 1.14038C108.346 11.5493 108.346 21.9454 108.346 32.4053Z" fill="#606579"/>
<path d="M13.3939 47.8211C14.1945 49.1716 14.9824 50.4839 15.8338 51.9108C14.9316 51.9108 14.1437 51.9363 13.3558 51.8981C13.2033 51.8853 13.0254 51.6687 12.9237 51.5031C12.4027 50.5858 11.869 49.6685 11.3988 48.7257C11.1574 48.2543 10.8778 47.9995 10.3187 48.0887C10.0137 48.1396 9.68327 48.1014 9.30204 48.1014C9.30204 49.3755 9.30204 50.624 9.30204 51.8853C8.50145 51.8853 7.77711 51.8853 7.01465 51.8853C7.01465 48.2543 7.01465 44.6615 7.01465 41.005C8.46333 41.005 9.87389 40.9795 11.2844 41.0178C12.0596 41.0432 12.8602 41.0687 13.5845 41.3108C14.9697 41.7567 15.7449 42.9925 15.7449 44.4959C15.7576 46.0757 15.0586 47.1459 13.6608 47.7192C13.5972 47.7319 13.521 47.7574 13.3939 47.8211ZM9.32745 45.9483C10.2805 45.9483 11.2082 45.9993 12.1232 45.9356C12.911 45.8846 13.3558 45.2858 13.3431 44.4959C13.3304 43.7442 12.8983 43.1836 12.1232 43.1327C11.2082 43.069 10.2805 43.1199 9.31475 43.1199C9.32745 44.0627 9.32745 44.9673 9.32745 45.9483Z" fill="#606579"/>
<path d="M55.5709 49.2608C56.0411 47.579 56.4985 46.0757 56.8798 44.5468C56.9942 44.1137 57.1721 44.0117 57.566 44.0372C58.087 44.0627 58.6207 44.05 59.2053 44.05C58.5064 46.3177 57.8202 48.5473 57.1339 50.7641C56.7781 51.9235 56.7654 51.8725 55.5328 51.9362C54.783 51.9745 54.478 51.7451 54.2874 51.0189C53.9062 49.592 53.4106 48.1906 52.9023 46.598C52.5592 47.681 52.2542 48.5983 51.9619 49.5283C51.7586 50.1781 51.5425 50.8151 51.3646 51.4648C51.2757 51.7834 51.1486 51.898 50.8055 51.9108C49.001 51.9617 49.0137 51.9745 48.4927 50.229C48.1877 49.1971 47.8573 48.1651 47.5396 47.1331C47.2346 46.1266 46.9296 45.1201 46.6119 44.0627C47.3363 44.0627 48.0225 44.0627 48.7595 44.0627C49.2297 45.7189 49.7126 47.4007 50.2336 49.248C50.7801 47.5918 51.3011 46.1011 51.7586 44.585C51.8984 44.1264 52.089 43.9735 52.5464 44.0117C52.9404 44.0499 53.347 44.0245 53.8045 44.0245C54.4018 45.7317 54.9736 47.4261 55.5709 49.2608Z" fill="#606579"/>
<path d="M46.002 48.5982C44.0577 48.5982 42.1643 48.5982 40.2581 48.5982C40.3471 50.4838 42.2914 50.9934 44.5787 49.7576C44.8583 50.1653 45.1379 50.5857 45.4047 50.9807C45.3793 51.0571 45.3793 51.1081 45.3539 51.1336C43.7146 52.6751 40.5123 52.4968 38.9619 50.7768C37.5006 49.1588 37.6912 46.2158 39.4067 44.7379C40.6521 43.6677 42.1135 43.4766 43.6257 44.0626C45.1125 44.6487 45.786 45.8845 46.002 47.4134C46.0401 47.7701 46.002 48.1268 46.002 48.5982ZM40.1946 47.1968C41.3764 47.1968 42.5074 47.1968 43.6511 47.1968C43.7527 47.1968 43.8544 47.1713 43.9434 47.1586C43.8798 46.1138 43.2317 45.4768 42.2024 45.4386C41.0841 45.4004 40.3471 46.0247 40.1946 47.1968Z" fill="#606579"/>
<path d="M23.1154 49.7576C23.395 50.1653 23.6745 50.5857 23.9922 51.0444C23.2933 51.7706 22.3783 51.9999 21.438 52.14C19.4429 52.4458 17.5875 51.4648 16.8759 49.7831C16.088 47.9102 16.5963 45.7061 18.1594 44.5722C19.4429 43.6422 20.8534 43.5148 22.3021 44.1391C23.7 44.7506 24.3226 45.9355 24.5132 47.3879C24.5641 47.7573 24.526 48.1395 24.526 48.5855C22.6071 48.5855 20.7136 48.5855 18.8202 48.5855C18.8075 50.4328 20.7518 50.9424 23.1154 49.7576ZM22.48 47.1585C22.4165 46.1011 21.7048 45.4513 20.6501 45.4386C19.5827 45.4258 18.8456 46.0629 18.7439 47.1585C19.9766 47.1585 21.2092 47.1585 22.48 47.1585Z" fill="#606579"/>
<path d="M65.521 46.1012C64.7458 45.8463 64.0469 45.5661 63.3226 45.3877C63.0176 45.3112 62.6236 45.3877 62.3441 45.5278C62.1153 45.6298 61.8739 45.9355 61.8485 46.1649C61.8358 46.3177 62.1535 46.6108 62.3695 46.6745C63.1574 46.9293 63.9707 47.0694 64.7585 47.3242C65.9658 47.7192 66.4741 48.4199 66.4868 49.5411C66.4995 50.6495 65.9276 51.4903 64.784 51.8725C62.9032 52.4968 61.175 52.1401 59.4976 50.968C59.8025 50.4584 60.0821 49.987 60.3617 49.5283C60.9462 49.8086 61.48 50.1653 62.0772 50.3182C62.6491 50.4711 63.2844 50.4711 63.869 50.4074C64.1104 50.3819 64.4663 49.987 64.479 49.7322C64.4917 49.5156 64.1359 49.1716 63.869 49.0824C63.0938 48.8276 62.2551 48.7129 61.48 48.4709C59.7644 47.923 59.218 46.0884 60.349 44.7761C60.4888 44.6233 60.654 44.4704 60.8192 44.3557C62.2551 43.3747 64.911 43.6295 66.2326 44.8908C65.9658 45.3495 65.6989 45.7954 65.521 46.1012Z" fill="#606579"/>
<path d="M108.791 51.8981C107.99 51.5159 107.291 51.2101 106.618 50.8661C106.224 50.6623 105.893 50.6368 105.5 50.8534C104.813 51.2228 104.089 51.5286 103.301 51.8981C103.415 50.968 103.543 50.1399 103.606 49.299C103.619 49.057 103.543 48.7512 103.39 48.5728C102.844 47.9358 102.259 47.3243 101.624 46.649C102.526 46.4579 103.352 46.3178 104.152 46.1012C104.394 46.0375 104.674 45.8337 104.801 45.6171C105.233 44.9163 105.601 44.1774 106.033 43.3748C106.465 44.1647 106.834 44.8909 107.253 45.5661C107.406 45.8082 107.711 46.0502 107.99 46.1267C108.765 46.3433 109.566 46.4707 110.468 46.649C109.884 47.2733 109.35 47.8721 108.804 48.4327C108.511 48.7257 108.384 49.006 108.473 49.4392C108.626 50.2036 108.676 50.9808 108.791 51.8981Z" fill="#606579"/>
<path d="M77.3646 51.898C76.6149 51.5413 75.9414 51.2355 75.2933 50.8915C74.8485 50.6494 74.4546 50.6367 73.9971 50.8915C73.349 51.2482 72.6755 51.5413 71.9257 51.898C72.0274 50.9934 72.0782 50.178 72.218 49.3754C72.2943 48.9295 72.1291 48.6619 71.8495 48.3689C71.3158 47.8338 70.8075 47.2732 70.2102 46.6362C71.0362 46.4706 71.7351 46.2795 72.4595 46.1903C73.044 46.1266 73.349 45.8208 73.5905 45.324C73.8954 44.6869 74.264 44.0754 74.6452 43.3619C75.0646 44.1264 75.4585 44.8016 75.8143 45.5023C76.0049 45.859 76.2337 46.0884 76.6657 46.1521C77.4409 46.2667 78.1906 46.4451 79.0802 46.6235C78.521 47.235 78.0127 47.7956 77.4917 48.3307C77.174 48.6492 77.0088 48.9422 77.1105 49.4391C77.2376 50.2163 77.2757 51.0062 77.3646 51.898Z" fill="#606579"/>
<path d="M119.249 51.8981C118.449 51.5159 117.763 51.2356 117.127 50.8789C116.682 50.6368 116.314 50.6623 115.894 50.8916C115.246 51.2356 114.573 51.5286 113.785 51.8981C113.887 51.0063 113.95 50.2164 114.077 49.4264C114.154 49.006 114.039 48.7002 113.747 48.4072C113.2 47.8594 112.679 47.2861 112.082 46.6363C112.883 46.4707 113.544 46.2923 114.23 46.2159C114.84 46.1394 115.221 45.8719 115.475 45.3113C115.767 44.687 116.136 44.0882 116.517 43.3748C116.937 44.1519 117.28 44.8654 117.712 45.5279C117.877 45.7954 118.207 46.0375 118.512 46.1139C119.275 46.3305 120.063 46.4579 120.952 46.6363C120.406 47.2224 119.948 47.7829 119.427 48.2543C119.008 48.6365 118.881 49.0442 118.982 49.6048C119.11 50.3183 119.148 51.0445 119.249 51.8981Z" fill="#606579"/>
<path d="M82.3461 51.9107C82.4732 50.9552 82.6003 50.1398 82.6638 49.3244C82.6892 49.0696 82.5875 48.7384 82.4223 48.5473C81.9013 47.9102 81.3168 47.3369 80.6814 46.6489C81.4947 46.4833 82.219 46.305 82.9561 46.203C83.4644 46.1266 83.7821 45.91 83.9981 45.4386C84.3031 44.7761 84.697 44.1518 85.1164 43.4001C85.5484 44.1901 85.8916 44.9035 86.3236 45.566C86.4761 45.8081 86.7811 46.0501 87.0607 46.1266C87.8358 46.3432 88.6237 46.4706 89.5387 46.6617C88.9414 47.3114 88.3569 47.872 87.8485 48.4963C87.6706 48.7256 87.5436 49.0824 87.5563 49.3754C87.5944 50.178 87.7342 50.9679 87.8485 51.9107C87.0353 51.5285 86.3109 51.21 85.612 50.8533C85.2562 50.6622 84.9639 50.6622 84.6081 50.8533C83.8964 51.1973 83.1594 51.5285 82.3461 51.9107Z" fill="#606579"/>
<path d="M98.3196 51.898C97.4682 51.5031 96.7439 51.1209 95.9814 50.8151C95.7399 50.7132 95.4096 50.7259 95.1681 50.8151C94.4311 51.1209 93.7194 51.4903 92.868 51.8853C92.9443 51.1463 92.9824 50.5093 93.0967 49.885C93.2238 49.1843 93.1476 48.6365 92.5503 48.1396C92.0547 47.7319 91.6608 47.1968 91.1525 46.649C92.0293 46.4706 92.8172 46.3432 93.5796 46.1266C93.8846 46.0375 94.2023 45.7954 94.3802 45.5406C94.7996 44.8908 95.1427 44.1774 95.5747 43.3875C95.9941 44.1519 96.388 44.8399 96.7439 45.5278C96.9345 45.8973 97.1759 46.1012 97.608 46.1649C98.3704 46.2795 99.1329 46.4579 100.01 46.649C99.4252 47.2733 98.9296 47.8338 98.3959 48.3689C98.0655 48.6875 97.9384 49.006 98.0273 49.4901C98.1671 50.229 98.218 50.9935 98.3196 51.898Z" fill="#606579"/>
<path d="M29.2278 49.4774C29.8759 47.7447 30.4858 46.1776 31.0323 44.5851C31.1848 44.1391 31.4008 43.999 31.8456 44.0245C32.3666 44.0627 32.9003 44.0372 33.5103 44.0372C33.1926 44.8399 32.913 45.5916 32.608 46.3432C31.9218 48.0377 31.2229 49.7067 30.5494 51.4012C30.4096 51.7579 30.2444 51.9235 29.825 51.9235C28.1095 51.9108 28.1095 51.9363 27.4741 50.331C26.6862 48.3944 25.9111 46.4452 25.1232 44.5086C25.0724 44.3685 25.0342 44.2283 24.9834 44.0627C25.7077 44.0627 26.4067 44.0627 27.1691 44.0627C27.8299 45.7954 28.5034 47.5663 29.2278 49.4774Z" fill="#606579"/>
<path d="M34.4888 44.0499C35.175 44.0499 35.8231 44.0499 36.5093 44.0499C36.5093 46.649 36.5093 49.2225 36.5093 51.847C35.8612 51.847 35.2004 51.847 34.4888 51.847C34.4888 49.299 34.4888 46.7127 34.4888 44.0499Z" fill="#606579"/>
<path d="M35.4546 43.1327C34.8065 43.1454 34.1965 42.5594 34.1838 41.8841C34.1711 41.2089 34.7175 40.6229 35.4038 40.5974C36.0646 40.5846 36.6745 41.1707 36.6872 41.8332C36.7127 42.4829 36.1027 43.12 35.4546 43.1327Z" fill="#606579"/>
</svg>
