<svg width="174" height="34" viewBox="0 0 174 34" fill="none" xmlns="http://www.w3.org/2000/svg">
<g clip-path="url(#clip0)">
<path d="M53.2097 25.9245H48.9353L43.3342 19.5768H39.8705V25.9245H36.2593V6.95453C39.2809 6.95453 42.3025 6.95453 45.3978 6.95453C49.8933 6.95453 52.3253 9.94594 52.3253 13.2292C52.3253 15.8558 51.1462 18.4824 47.4613 19.212L53.2834 25.7056V25.9245H53.2097ZM39.8705 10.2378V16.2936H45.3978C47.6824 16.2936 48.7142 14.7614 48.7142 13.2292C48.7142 11.697 47.6824 10.1648 45.3978 10.1648H39.8705V10.2378Z" fill="#2E3133"/>
<path d="M55.8627 20.3794C56.0838 22.0575 57.5578 23.2249 59.9161 23.2249C61.1689 23.2249 62.7903 22.7871 63.5273 21.9846L65.6645 24.1004C64.2642 25.5597 61.9059 26.2893 59.8424 26.2893C55.1994 26.2893 52.3989 23.4438 52.3989 19.1391C52.3989 15.0532 55.1994 12.1348 59.5476 12.1348C64.0431 12.1348 66.9173 14.9073 66.4015 20.3794H55.8627ZM63.2325 17.6798C63.0114 15.9288 61.6111 15.0532 59.695 15.0532C57.8525 15.0532 56.3786 15.9288 55.9364 17.6798H63.2325Z" fill="#2E3133"/>
<path d="M80.9938 12.4996L75.2453 25.9245H71.6342L65.8857 12.4996H69.4969L71.3394 16.9502L73.4029 22.5682L75.4664 16.9502L77.3089 12.4996H80.9938Z" fill="#2E3133"/>
<path d="M85.6367 8.77855C85.6367 11.3322 81.657 11.3322 81.657 8.77855C81.7307 6.15194 85.6367 6.15194 85.6367 8.77855ZM82.0255 12.4996V25.9245H85.3419V12.4996H82.0255Z" fill="#2E3133"/>
<path d="M90.4269 20.3794C90.648 22.0575 92.122 23.2249 94.4803 23.2249C95.7332 23.2249 97.3545 22.7871 98.0915 21.9846L100.229 24.1004C98.8285 25.5597 96.4701 26.2893 94.4066 26.2893C89.7636 26.2893 86.9631 23.4438 86.9631 19.1391C86.9631 15.0532 89.7636 12.1348 94.1118 12.1348C98.6074 12.1348 101.482 14.9073 100.966 20.3794H90.4269ZM97.7967 17.6798C97.5756 15.9288 96.1753 15.0532 94.2592 15.0532C92.4168 15.0532 90.9428 15.9288 90.5006 17.6798H97.7967Z" fill="#2E3133"/>
<path d="M113.2 12.4996L116.148 22.5682L119.243 12.4996H122.928L118.211 25.9245H114.305L112.905 21.9846L111.726 17.5339L110.547 21.9846L109.146 25.9245H105.24L100.524 12.4996H104.282L107.378 22.5682L110.325 12.4996H113.2Z" fill="#2E3133"/>
<path d="M123.591 31.4695V12.4996H126.686L126.907 14.3236C127.939 12.8644 129.781 12.2077 131.255 12.2077C135.382 12.2077 138.183 15.2721 138.183 19.212C138.183 23.1519 135.677 26.2163 131.329 26.2163C129.929 26.2163 127.792 25.7785 126.834 24.3193V31.4695H123.591ZM134.94 19.212C134.94 17.0961 133.54 15.418 131.108 15.418C128.676 15.418 127.276 17.0961 127.276 19.212C127.276 21.3279 128.823 23.006 131.108 23.006C133.393 23.006 134.94 21.3279 134.94 19.212Z" fill="#2E3133"/>
<path d="M143.784 8.77855C143.784 11.3322 139.804 11.3322 139.804 8.77855C139.804 6.15194 143.784 6.15194 143.784 8.77855ZM140.099 12.4996V25.9245H143.416V12.4996H140.099Z" fill="#2E3133"/>
<path d="M149.09 6.95453V25.9245H145.774V6.95453H149.09Z" fill="#2E3133"/>
<path d="M164.935 19.212C164.935 23.079 162.282 26.1433 157.934 26.1433C153.586 26.1433 150.933 23.006 150.933 19.212C150.933 15.418 153.586 12.2077 157.934 12.2077C162.135 12.2807 164.935 15.418 164.935 19.212ZM154.175 19.212C154.175 21.2549 155.428 23.1519 157.86 23.1519C160.292 23.1519 161.545 21.2549 161.545 19.212C161.545 17.1691 160.145 15.2721 157.86 15.2721C155.428 15.2721 154.175 17.2421 154.175 19.212Z" fill="#2E3133"/>
<path d="M173.042 22.6412C172.526 22.8601 171.936 23.079 171.421 23.079C170.389 23.079 169.652 22.4223 169.652 21.182V15.418H173.41V12.5725H169.652V8.77853L166.335 9.14334V21.182C166.335 24.5382 168.252 26.1433 171.199 26.0704C172.231 26.0704 173.042 25.8515 174 25.4867L173.042 22.6412Z" fill="#2E3133"/>
<path d="M13.8551 27.3837C13.5604 27.1648 13.1182 27.1648 12.8234 27.3837L4.20076 32.9288C3.46379 33.4395 2.50572 32.7099 2.72681 31.8343L5.45362 21.9846C5.52732 21.6198 5.45362 21.2549 5.15883 21.0361L0 16.9502C0.0736976 17.388 0.0736976 17.8987 0.147395 18.3365C0.589581 20.8901 1.69504 23.2979 3.24269 25.2678C3.39009 25.4867 3.46379 25.7786 3.39009 26.0704L1.84244 31.6884C1.62135 32.1992 1.76874 32.8558 2.13723 33.2936C2.50572 33.7313 3.0953 34.0232 3.68488 34.0232C4.05337 34.0232 4.42185 33.9502 4.71665 33.7313L9.72808 30.521C9.94917 30.3751 10.244 30.3022 10.5388 30.4481C12.1601 31.0318 13.9288 31.3236 15.6976 31.3236C16.9504 31.3236 18.1296 31.1777 19.3088 30.8858L13.8551 27.3837Z" fill="url(#paint0_linear)"/>
<path d="M31.3215 13.8858C30.5109 6.73562 24.6888 0.89871 17.3927 0.0961351C8.91748 -0.779401 1.62141 4.98455 0.147461 12.7914L7.9594 12.4266C8.32789 12.4266 8.62268 12.2077 8.77008 11.8429L12.6024 1.84721C12.8971 1.19056 13.8552 1.19056 14.0763 1.84721L17.9086 11.8429C18.056 12.2077 18.3508 12.4266 18.7193 12.4266L29.5528 12.9373C30.2898 12.9373 30.5846 13.8858 29.995 14.3236L21.5935 21.036C21.2987 21.2549 21.1513 21.6197 21.2987 21.9845L23.2885 29.2807C28.6684 26.4352 32.0585 20.5253 31.3215 13.8858Z" fill="url(#paint1_linear)"/>
<path d="M31.3214 13.8858C30.5107 6.73562 24.6886 0.898706 17.3926 0.0961308C10.0228 -0.706444 3.53742 3.59828 0.958008 9.94592C3.68482 7.53819 7.1486 6.006 11.0546 5.86008L12.6022 1.8472C12.897 1.19055 13.8551 1.19055 14.0762 1.8472L15.8449 6.44377C19.4561 7.46523 22.6251 9.72703 24.6886 12.7184L29.5527 12.9373C30.2896 12.9373 30.5844 13.8858 29.9949 14.3236L26.6785 16.9502C27.1206 18.4094 27.3417 19.8687 27.3417 21.4738C27.3417 23.5167 26.9733 25.4137 26.2363 27.2378C29.8475 24.0275 31.911 19.1391 31.3214 13.8858Z" fill="url(#paint2_linear)"/>
</g>
<defs>
<linearGradient id="paint0_linear" x1="10.1269" y1="23.3031" x2="3.5663" y2="31.0442" gradientUnits="userSpaceOnUse">
<stop stop-color="#CB00AD"/>
<stop offset="1" stop-color="#E32C90"/>
</linearGradient>
<linearGradient id="paint1_linear" x1="25.747" y1="3.99497" x2="13.8534" y2="18.0286" gradientUnits="userSpaceOnUse">
<stop stop-color="#CB00AD"/>
<stop offset="1" stop-color="#E32C90"/>
</linearGradient>
<linearGradient id="paint2_linear" x1="24.108" y1="2.18611" x2="20.5279" y2="8.01888" gradientUnits="userSpaceOnUse">
<stop stop-color="#FFB200"/>
<stop offset="1" stop-color="#E32C90"/>
</linearGradient>
<clipPath id="clip0">
<rect width="174" height="34" fill="white"/>
</clipPath>
</defs>
</svg>
