<svg width="212" height="43" viewBox="0 0 212 43" fill="none" xmlns="http://www.w3.org/2000/svg">
<g clip-path="url(#clip0)">
<path d="M13.1389 21.345C13.1389 22.3714 12.3535 23.2114 11.386 23.2114C10.4153 23.2114 9.63147 22.3714 9.63147 21.345C9.63147 20.3202 10.4153 19.4902 11.386 19.4902C12.3535 19.4919 13.1389 20.3202 13.1389 21.345Z" fill="#606579"/>
<path d="M34.2848 21.345C34.2848 22.3714 33.5026 23.2114 32.535 23.2114C31.5612 23.2114 30.7805 22.3714 30.7805 21.345C30.7805 20.3202 31.5612 19.4902 32.535 19.4902C33.5026 19.4919 34.2848 20.3202 34.2848 21.345Z" fill="#606579"/>
<path d="M6.17334 21.3449C6.17334 24.3974 8.51376 26.8754 11.3894 26.8754C14.2587 26.8754 16.5976 24.3974 16.5976 21.3449C16.5976 18.3007 14.2571 15.821 11.3894 15.821C8.51376 15.8244 6.17334 18.3024 6.17334 21.3449ZM7.97062 21.3449C7.97062 19.349 9.5082 17.7245 11.3926 17.7245C13.2738 17.7245 14.8034 19.3524 14.8034 21.3449C14.8034 23.3474 13.2738 24.9737 11.3926 24.9737C9.5082 24.9754 7.97062 23.3508 7.97062 21.3449Z" fill="#606579"/>
<path d="M27.3207 21.3449C27.3207 24.3974 29.6579 26.8754 32.5336 26.8754C35.4045 26.8754 37.7402 24.3974 37.7402 21.3449C37.7402 18.3007 35.4045 15.821 32.5336 15.821C29.6595 15.8244 27.3207 18.3024 27.3207 21.3449ZM29.118 21.3449C29.118 19.349 30.6508 17.7245 32.5367 17.7245C34.418 17.7245 35.946 19.3524 35.946 21.3449C35.946 23.3474 34.418 24.9737 32.5367 24.9737C30.6492 24.9754 29.118 23.3508 29.118 21.3449Z" fill="#606579"/>
<path d="M41.0386 14.8382C41.5327 12.592 43.1035 10.3425 43.1035 10.3425L36.0585 10.3375C32.1076 7.63101 27.3112 6.19629 21.9954 6.19629C16.4784 6.19629 11.4967 7.66629 7.56806 10.3912L0.964844 10.398C0.964844 10.398 2.51668 12.6206 3.01865 14.8516C1.73443 16.7047 0.971178 18.9811 0.971178 21.454C0.971178 27.6247 5.70586 32.6445 11.5252 32.6445C14.8522 32.6445 17.8181 30.9998 19.7531 28.4445L22.0001 32.0145L24.2645 28.4143C25.2827 29.7885 26.597 30.904 28.1378 31.66C30.6999 32.91 33.5708 33.0326 36.2137 31.9977C41.6736 29.8557 44.4764 23.3978 42.4574 17.6136C42.1027 16.5938 41.6182 15.6681 41.0386 14.8382ZM21.9938 8.15181C25.7863 8.15181 29.2098 8.87925 32.2343 10.3173C31.1227 10.3492 30 10.5592 28.901 10.986C26.2566 12.0208 24.1474 14.0872 22.9708 16.8072C22.4356 18.0386 22.1331 19.3389 22.0397 20.6544C21.6533 14.9272 17.2053 10.3812 11.7343 10.2636C14.7556 8.89437 18.2282 8.15181 21.9938 8.15181ZM18.4974 26.4537C16.982 28.8242 14.4199 30.3866 11.5221 30.3866C6.87607 30.3866 3.09624 26.3731 3.09624 21.454C3.09624 16.5216 6.87765 12.5164 11.5221 12.5164C16.1665 12.5164 19.9463 16.5232 19.9463 21.454C19.9463 21.7548 19.8909 22.0387 19.8624 22.3293C19.7215 23.8413 19.2638 25.2559 18.4974 26.4537ZM35.4742 29.8776C33.3634 30.7008 31.0736 30.61 29.0293 29.6088C27.5788 28.8964 26.3912 27.7792 25.5361 26.3932C25.1877 25.8321 24.8805 25.2374 24.6557 24.5856C24.3991 23.8497 24.2709 23.0904 24.2012 22.326C24.0603 20.7753 24.2725 19.2062 24.9027 17.753C25.8465 15.5841 27.5281 13.9327 29.639 13.1044C33.9983 11.3992 38.8502 13.7714 40.4606 18.3948C42.0695 23.0181 39.832 28.1656 35.4742 29.8776Z" fill="#606579"/>
<path d="M152.313 7.98562C152.313 9.17842 153.228 10.1461 154.351 10.1461C155.48 10.1461 156.389 9.17842 156.389 7.98562C156.389 6.7945 155.477 5.82178 154.351 5.82178C153.228 5.8201 152.313 6.7945 152.313 7.98562Z" fill="#606579"/>
<path d="M55.5497 7.83266L52.4603 8.96498C52.4603 8.96498 52.4603 12.8895 52.4603 13.2406C52.1372 13.2406 49.0367 13.2406 49.0367 13.2406V16.1083C49.0367 16.1083 52.0406 16.1083 52.3668 16.1083C52.3668 16.4813 52.3668 25.3131 52.3668 25.3131C52.3668 29.6878 53.7714 31.482 57.2235 31.482C58.0991 31.482 58.9352 31.3678 59.7745 31.1242L59.9107 31.0889L59.8727 28.1153L59.6367 28.2111C58.9574 28.4597 58.4269 28.5823 58.0168 28.5823C56.3953 28.5823 55.7935 27.6147 55.7935 25.0023C55.7935 25.0023 55.7935 16.4779 55.7935 16.1117C56.1229 16.1117 59.7444 16.1117 59.7444 16.1117V13.2406C59.7444 13.2406 56.1245 13.2406 55.7935 13.2406C55.7935 12.8861 55.7935 7.74866 55.7935 7.74866L55.5497 7.83266Z" fill="#606579"/>
<path d="M66.2286 16.1452C66.2286 15.1355 66.2286 13.2405 66.2286 13.2405H63.0948V31.1661H66.5216V22.168C66.5216 18.3964 68.0148 16.3183 70.7226 16.3183C71.1153 16.3183 71.4953 16.3804 71.9593 16.5199L72.181 16.5871L72.2934 13.049L70.8192 12.9297C68.8335 12.9263 67.2294 14.0654 66.2286 16.1452Z" fill="#606579"/>
<path d="M90.6813 12.819C88.3298 12.819 86.3536 14 85.0345 16.1487C85.0345 15.2902 85.0345 13.2373 85.0345 13.2373H81.9023V38.4659H85.3306C85.3306 38.4659 85.3306 29.6559 85.3306 28.6866C86.5673 30.4707 88.3409 31.4518 90.5483 31.4518C94.8792 31.4518 97.6772 27.6819 97.6772 21.859C97.6788 16.4511 94.8649 12.819 90.6813 12.819ZM89.7249 28.5102C87.0139 28.5102 85.3306 26.0523 85.3306 22.1026C85.3306 18.2907 87.1073 15.8278 89.8563 15.8278C92.5055 15.8278 94.089 18.1631 94.089 22.0657C94.089 26.0389 92.4152 28.5102 89.7249 28.5102Z" fill="#606579"/>
<path d="M107.693 12.819C105.598 12.819 103.763 13.239 102.08 14.0975L101.975 14.1512L102.011 17.2542L102.281 17.0929C103.889 16.1387 105.413 15.6515 106.8 15.6515C109.281 15.6515 110.706 17.1601 110.706 19.7977C110.706 19.7977 110.706 19.8733 110.706 19.9506C110.404 19.9506 108.746 19.9506 108.746 19.9506C103.106 19.9506 100.002 22.1178 100.002 26.049C100.002 29.2057 102.243 31.4115 105.449 31.4115C107.809 31.4115 109.634 30.4271 110.936 28.5757C110.936 29.2964 110.936 31.1646 110.936 31.1646H114.032V20.3168C114.03 15.344 111.899 12.819 107.693 12.819ZM110.702 23.5979C110.702 26.6857 108.95 28.6832 106.241 28.6832C104.581 28.6832 103.424 27.5257 103.424 25.8709C103.424 23.6953 105.384 22.5008 108.942 22.5008C108.942 22.5008 110.409 22.5008 110.705 22.5008C110.702 22.7814 110.702 23.5979 110.702 23.5979Z" fill="#606579"/>
<path d="M128.582 4.67932C128.582 4.67932 128.582 14.6736 128.582 15.6716C127.319 13.8084 125.561 12.8206 123.303 12.8206C119.111 12.8206 116.294 16.483 116.294 21.9245C116.294 27.5307 119.151 31.4451 123.233 31.4451C125.651 31.4451 127.537 30.3094 128.845 28.1002C128.845 28.994 128.845 31.1662 128.845 31.1662H132.012V4.67932H128.582ZM124.122 28.4379C121.51 28.4379 119.889 26.022 119.889 22.1345C119.889 18.242 121.525 15.7253 124.06 15.7253C126.89 15.7253 128.579 18.1193 128.579 22.1345C128.582 25.97 126.837 28.4379 124.122 28.4379Z" fill="#606579"/>
<path d="M147.322 13.239L142.463 23.5912L137.973 13.239H134.112L142.392 31.1663L150.897 13.239H147.322Z" fill="#606579"/>
<path d="M155.886 13.239H152.641V31.1663H156.071V13.239H155.886Z" fill="#606579"/>
<path d="M160.088 17.8354C160.088 20.3571 161.72 21.6843 164.737 23.25C166.639 24.2412 167.632 24.8259 167.632 26.2236C167.632 27.6567 166.412 28.5823 164.517 28.5823C163.177 28.5823 161.69 28.1825 160.218 27.4147L159.968 27.2837L159.857 30.4438L159.971 30.4891C161.378 31.0839 162.859 31.3745 164.387 31.3745C168.577 31.3745 171.283 29.256 171.283 25.9767C171.283 23.2433 169.57 21.8556 166.601 20.3856C164.427 19.302 163.515 18.6703 163.515 17.5212C163.515 16.4326 164.53 15.7236 166.097 15.7236C167.515 15.7236 168.897 16.0579 170.205 16.7199L170.452 16.8408L170.601 13.7479L170.465 13.7059C169.046 13.2591 167.644 13.0339 166.295 13.0339C162.583 13.0289 160.088 14.9609 160.088 17.8354Z" fill="#606579"/>
<path d="M181.974 12.819C176.824 12.819 173.627 16.4158 173.627 22.2018C173.627 27.9894 176.827 31.5812 181.974 31.5812C187.147 31.5812 190.358 27.9877 190.358 22.2018C190.358 16.4175 187.144 12.819 181.974 12.819ZM182.004 28.6143C179.158 28.6143 177.247 26.0238 177.247 22.1665C177.247 18.2891 179.158 15.6884 182.004 15.6884C184.895 15.6884 186.764 18.2336 186.764 22.1665C186.764 26.0843 184.898 28.6143 182.004 28.6143Z" fill="#606579"/>
<path d="M196.68 16.1453C196.68 15.1357 196.68 13.2406 196.68 13.2406H193.546V31.1662H196.973V22.1681C196.973 18.3965 198.458 16.3184 201.169 16.3184C201.559 16.3184 201.937 16.3805 202.392 16.52L202.623 16.5872L202.729 13.0491L201.261 12.9298C199.283 12.9265 197.682 14.0655 196.68 16.1453Z" fill="#606579"/>
<path d="M78.3996 13.239H75.1566V31.1663H78.5833V13.239H78.3996Z" fill="#606579"/>
<path d="M74.8239 7.98562C74.8239 9.17842 75.7407 10.1461 76.8618 10.1461C77.9861 10.1461 78.8998 9.17842 78.8998 7.98562C78.8998 6.7945 77.9861 5.82178 76.8618 5.82178C75.7407 5.8201 74.8239 6.7945 74.8239 7.98562Z" fill="#606579"/>
<path d="M210.902 12.446C211.465 13.0491 211.759 13.8521 211.759 14.7156C211.759 15.6178 211.441 16.4259 210.857 17.0206C210.247 17.6355 209.49 17.9648 208.701 17.9648C207.876 17.9648 207.118 17.6204 206.527 16.9736C205.964 16.3536 205.645 15.5607 205.645 14.714C205.645 13.8504 205.97 13.0138 206.576 12.3788C207.145 11.7874 207.878 11.4648 208.701 11.4648C209.545 11.4648 210.315 11.8042 210.902 12.446ZM206.956 12.8021C206.462 13.3263 206.198 14.0016 206.198 14.7156C206.198 15.4112 206.442 16.0496 206.915 16.5603C207.389 17.0844 208.017 17.3684 208.69 17.3684C209.346 17.3684 209.975 17.1012 210.461 16.6006C210.939 16.1134 211.202 15.4448 211.202 14.714C211.202 14 210.958 13.3515 210.494 12.8542C210.008 12.33 209.39 12.0528 208.703 12.0528C208.024 12.0528 207.43 12.3099 206.956 12.8021ZM208.757 12.8626C209.715 12.8626 210.207 13.2305 210.207 13.8975C210.207 14.3561 209.951 14.7123 209.493 14.8584L210.247 16.4225H209.227L208.599 15.0113H208.332V16.4225H207.408V12.8609L208.757 12.8626ZM208.326 14.4317H208.648C209.059 14.4317 209.257 14.2788 209.257 13.9731C209.257 13.6236 209.05 13.4808 208.599 13.4808H208.326V14.4317Z" fill="#606579"/>
</g>
<defs>
<clipPath id="clip0">
<rect width="211" height="42" fill="white" transform="translate(0.964844 0.573242)"/>
</clipPath>
</defs>
</svg>
