<svg width="100" height="80" viewBox="0 0 100 80" fill="none" xmlns="http://www.w3.org/2000/svg">
<path fill-rule="evenodd" clip-rule="evenodd" d="M9.37596 30.0232C10.5486 39.0962 19.845 46.1629 31.1393 46.1629C43.2277 46.1629 53.0273 38.0675 53.0273 28.0814C53.0273 18.0953 43.2277 10 31.1393 10C21.5459 10 13.394 15.0984 10.4376 22.1942C8.28819 22.0469 6.18501 21.691 4.43789 21.0128C3.61855 20.6948 2.71297 21.347 3.08693 22.1424C4.30446 24.732 6.82177 27.588 9.37596 30.0232Z" fill="#F6F5F9"/>
<path d="M9.37596 30.0232L9.859 29.5166L10.0384 29.6877L10.0702 29.9335L9.37596 30.0232ZM10.4376 22.1942L11.0838 22.4634L10.8907 22.9269L10.3897 22.8926L10.4376 22.1942ZM4.43789 21.0128L4.18459 21.6654H4.18459L4.43789 21.0128ZM3.08693 22.1424L3.72041 21.8446V21.8446L3.08693 22.1424ZM10.0702 29.9335C11.1857 38.5641 20.0938 45.4629 31.1393 45.4629V46.8629C19.5961 46.8629 9.91156 39.6283 8.68173 30.113L10.0702 29.9335ZM31.1393 45.4629C42.9722 45.4629 52.3273 37.5618 52.3273 28.0814H53.7273C53.7273 38.5733 43.4832 46.8629 31.1393 46.8629V45.4629ZM52.3273 28.0814C52.3273 18.6011 42.9722 10.7 31.1393 10.7V9.3C43.4832 9.3 53.7273 17.5895 53.7273 28.0814H52.3273ZM31.1393 10.7C21.7726 10.7 13.9115 15.6765 11.0838 22.4634L9.79145 21.925C12.8765 14.5204 21.3192 9.3 31.1393 9.3V10.7ZM10.3897 22.8926C8.20308 22.7427 6.02259 22.3789 4.18459 21.6654L4.6912 20.3603C6.34743 21.0032 8.3733 21.351 10.4855 21.4959L10.3897 22.8926ZM4.18459 21.6654C4.00443 21.5955 3.83483 21.6415 3.74873 21.7095C3.70951 21.7404 3.70205 21.7636 3.70109 21.7672C3.70051 21.7693 3.69958 21.7735 3.70046 21.7821C3.70136 21.7911 3.70492 21.8117 3.72041 21.8446L2.45345 22.4403C2.11269 21.7155 2.37305 21.0119 2.88112 20.6107C3.35916 20.2332 4.05202 20.1122 4.6912 20.3603L4.18459 21.6654ZM3.72041 21.8446C4.88008 24.3111 7.31725 27.0932 9.859 29.5166L8.89292 30.5299C6.32628 28.0827 3.72883 25.1529 2.45345 22.4403L3.72041 21.8446Z" fill="#D411A1"/>
<path d="M24.4939 36.4313C24.6553 33.8613 26.0432 28.7213 31.272 28.7213C36.5007 28.7213 37.8886 33.8613 37.8079 36.4313" stroke="#D411A1" stroke-width="1.4" stroke-linecap="round"/>
<ellipse cx="31.1528" cy="22.0627" rx="3.50456" ry="3.85501" fill="#F6F5F9" stroke="#D411A1" stroke-width="1.4" stroke-linecap="round"/>
<path fill-rule="evenodd" clip-rule="evenodd" d="M83.3607 42.8951C84.9149 40.4114 85.7927 37.592 85.7927 34.6033C85.7927 24.6172 75.9931 16.5219 63.9047 16.5219C51.8162 16.5219 42.0166 24.6172 42.0166 34.6033C42.0166 44.5894 51.8162 52.6847 63.9047 52.6847C68.3248 52.6847 72.439 51.6024 75.8799 49.741C80.1328 49.6229 85.5861 49.0394 88.986 47.3921C89.7769 47.0088 89.483 45.9322 88.646 45.6642C86.9023 45.106 85.088 44.0949 83.3607 42.8951Z" fill="#F6F5F9"/>
<path d="M83.3607 42.8951L82.7673 42.5238C82.5691 42.8404 82.6545 43.2569 82.9613 43.47L83.3607 42.8951ZM75.8799 49.741L75.8605 49.0413C75.7508 49.0443 75.6434 49.0731 75.5468 49.1253L75.8799 49.741ZM88.986 47.3921L89.2912 48.022L88.986 47.3921ZM88.646 45.6642L88.4325 46.3309L88.646 45.6642ZM85.0927 34.6033C85.0927 37.4512 84.2571 40.1431 82.7673 42.5238L83.9541 43.2664C85.5728 40.6798 86.4927 37.7329 86.4927 34.6033H85.0927ZM63.9047 17.2219C75.7376 17.2219 85.0927 25.123 85.0927 34.6033H86.4927C86.4927 24.1114 76.2486 15.8219 63.9047 15.8219V17.2219ZM42.7166 34.6033C42.7166 25.123 52.0717 17.2219 63.9047 17.2219V15.8219C51.5607 15.8219 41.3166 24.1114 41.3166 34.6033H42.7166ZM63.9047 51.9847C52.0717 51.9847 42.7166 44.0836 42.7166 34.6033H41.3166C41.3166 45.0952 51.5607 53.3847 63.9047 53.3847V51.9847ZM75.5468 49.1253C72.2105 50.9301 68.2112 51.9847 63.9047 51.9847V53.3847C68.4385 53.3847 72.6674 52.2747 76.213 50.3567L75.5468 49.1253ZM88.6808 46.7621C85.4275 48.3384 80.1083 48.9233 75.8605 49.0413L75.8993 50.4407C80.1573 50.3225 85.7448 49.7403 89.2912 48.022L88.6808 46.7621ZM88.4325 46.3309C88.6166 46.3898 88.7195 46.5323 88.7437 46.6393C88.7547 46.688 88.746 46.7107 88.7445 46.7141C88.7436 46.7161 88.7417 46.7199 88.7355 46.7261C88.7292 46.7325 88.7135 46.7463 88.6808 46.7621L89.2912 48.022C90.012 47.6728 90.252 46.962 90.1093 46.3306C89.975 45.7365 89.5124 45.2066 88.8594 44.9976L88.4325 46.3309ZM82.9613 43.47C84.7194 44.6912 86.5979 45.7435 88.4325 46.3309L88.8594 44.9976C87.2068 44.4685 85.4566 43.4986 83.76 42.3202L82.9613 43.47Z" fill="#D411A1"/>
<path d="M57.8577 44.1414C58.019 41.5714 59.4069 36.4314 64.6357 36.4314C69.8645 36.4314 71.2524 41.5714 71.1717 44.1414" stroke="#D411A1" stroke-width="1.4" stroke-linecap="round" stroke-linejoin="round"/>
<ellipse cx="64.516" cy="29.7727" rx="3.50456" ry="3.85501" fill="#F6F5F9" stroke="#D411A1" stroke-width="1.4" stroke-linecap="round" stroke-linejoin="round"/>
<path fill-rule="evenodd" clip-rule="evenodd" d="M65.3658 60.3625C67.0258 57.8149 67.9678 54.9006 67.9678 51.8046C67.9678 41.8185 58.1682 33.7231 46.0797 33.7231C33.9913 33.7231 24.1917 41.8185 24.1917 51.8046C24.1917 61.7907 33.9913 69.886 46.0797 69.886C51.367 69.886 56.2163 68.3374 59.9994 65.7592C61.7831 67.0641 63.4165 68.5294 64.5522 70.0789C65.0718 70.7878 66.186 70.7251 66.2987 69.8534C66.6464 67.1627 66.138 63.6414 65.3658 60.3625Z" fill="#F6F5F9"/>
<path d="M65.3658 60.3625L64.7793 59.9803L64.6158 60.2314L64.6844 60.523L65.3658 60.3625ZM59.9994 65.7592L60.4127 65.1943L60.0137 64.9024L59.6052 65.1808L59.9994 65.7592ZM64.5522 70.0789L63.9876 70.4927V70.4927L64.5522 70.0789ZM66.2987 69.8534L66.9929 69.9432V69.9432L66.2987 69.8534ZM67.2678 51.8046C67.2678 54.7545 66.3712 57.5374 64.7793 59.9803L65.9523 60.7447C67.6805 58.0924 68.6678 55.0467 68.6678 51.8046H67.2678ZM46.0797 34.4231C57.9126 34.4231 67.2678 42.3243 67.2678 51.8046H68.6678C68.6678 41.3127 58.4237 33.0231 46.0797 33.0231V34.4231ZM24.8917 51.8046C24.8917 42.3243 34.2468 34.4231 46.0797 34.4231V33.0231C33.7358 33.0231 23.4917 41.3127 23.4917 51.8046H24.8917ZM46.0797 69.186C34.2468 69.186 24.8917 61.2849 24.8917 51.8046H23.4917C23.4917 62.2965 33.7358 70.586 46.0797 70.586V69.186ZM59.6052 65.1808C55.9427 67.6768 51.2317 69.186 46.0797 69.186V70.586C51.5022 70.586 56.49 68.998 60.3936 66.3377L59.6052 65.1808ZM59.5861 66.3242C61.3398 67.6071 62.9107 69.0235 63.9876 70.4927L65.1168 69.6651C63.9222 68.0352 62.2264 66.5211 60.4127 65.1943L59.5861 66.3242ZM63.9876 70.4927C64.3929 71.0457 65.0421 71.3164 65.6482 71.2553C66.2923 71.1905 66.8903 70.7374 66.9929 69.9432L65.6045 69.7637C65.5998 69.7998 65.5917 69.8191 65.5877 69.8271C65.5838 69.8349 65.5808 69.8379 65.5791 69.8394C65.5764 69.8419 65.5576 69.8574 65.5079 69.8624C65.3988 69.8734 65.231 69.8209 65.1168 69.6651L63.9876 70.4927ZM66.9929 69.9432C67.3575 67.1225 66.8238 63.4997 66.0471 60.202L64.6844 60.523C65.4522 63.7832 65.9354 67.2029 65.6045 69.7637L66.9929 69.9432Z" fill="#D411A1"/>
<path d="M39.7102 60.5316C39.8716 57.9616 41.2595 52.8215 46.4883 52.8215C51.7171 52.8215 53.1049 57.9616 53.0242 60.5316" stroke="#D411A1" stroke-width="1.4" stroke-linecap="round"/>
<ellipse cx="46.3686" cy="46.1628" rx="3.50456" ry="3.85501" fill="#F6F5F9" stroke="#D411A1" stroke-width="1.4" stroke-linecap="round"/>
</svg>
