<svg width="100" height="80" viewBox="0 0 100 80" fill="none" xmlns="http://www.w3.org/2000/svg">
<path d="M53.8379 46.8731C53.5561 44.6019 52.7812 40.0425 54.5091 38.8908C58.7163 36.5108 65.884 36.8606 68.0753 37.6604C67.637 36.2848 65.808 33.8617 64.6538 31.5543C63.6191 29.4857 61.2181 26.8637 60.6461 23.7653C59.7069 18.6789 63.2096 15.7819 63.7731 15.494C65.5428 14.3714 66.3964 15.2018 66.697 17.5818C67.0726 20.5568 67.9842 25.7702 74.1589 28.6631C80.3233 31.5512 82.7634 35.8971 84.322 42.0749C85.4564 46.5713 90.7079 52.3437 97 53.4953M53.8379 46.8731C55.1526 48.3447 60.5436 50.693 67.2301 49.8485C68.2835 49.6371 69.1145 49.3332 69.7565 48.9678M53.8379 46.8731C52.6483 47.4809 51.5282 49.2151 52.2043 52.8235C52.3413 53.3484 52.7093 53.8319 53.2309 54.271M58.4757 40.637C64.334 43.6105 69.0512 42.1187 70.7416 43.9421C72.0934 45.4003 72.3198 47.5089 69.7565 48.9678M71.5501 53.4953C71.5501 51.4991 70.3544 49.6452 69.7565 48.9678M71.5501 53.4953C71.5501 54.2956 70.8159 54.9576 69.7565 55.491M71.5501 53.4953C72.8961 54.9348 76.6776 57.6987 81.0351 57.2381M53.2309 54.271C55.5702 56.2401 60.9988 57.3166 62.5346 57.2381C63.8104 57.1729 67.5128 56.6206 69.7565 55.491M53.2309 54.271C52.6654 55.9638 51.8735 59.6181 53.2309 60.693C53.8407 61.1758 54.7042 61.6833 55.7173 62.14M69.7565 55.491C72.2829 56.1431 73.1465 58.5817 71.5501 59.9252C71.1325 60.2766 70.5095 60.7067 69.7565 61.1487M55.7173 62.14C57.5235 62.9542 59.8052 63.6066 61.9711 63.668C64.4677 63.7389 67.6302 62.3967 69.7565 61.1487M55.7173 62.14C55.5167 63.1612 55.4724 65.4147 56.8999 66.2592C58.6842 67.3149 60.3746 69.1383 63.3798 69.1383C64.9772 69.1383 67.7423 68.379 69.7565 67.1775M69.7565 61.1487C70.1665 61.2527 71.1932 61.8062 72.0196 63.1882C72.7235 64.7167 71.5315 66.1188 69.7565 67.1775M69.7565 67.1775C71.3248 67.1775 74.9872 67.1775 77.0908 67.1775C77.7152 67.1775 78.4824 66.9905 79.3109 66.6526M86.4819 59.9252C85.2645 62.9258 81.9719 65.5674 79.3109 66.6526M79.3109 66.6526C82.1082 67.0333 91.3507 70.3167 94.1305 75" stroke="#D411A1" stroke-width="1.4" stroke-linecap="round"/>
<path d="M3 5C6.79014 6.84235 15.1285 10.5908 18.1606 10.8459C21.9507 11.1648 39.1116 8.18868 41.9542 12.9718C42.9649 14.8425 42.7263 16.444 42.4806 17.0108C44.2309 17.6976 46.366 19.7574 44.6915 24.4512C46.7972 27.2148 46.0339 30.4878 44.6915 32.0077C46.0814 34.368 44.6915 38.4816 43.3229 39.2257C42.4293 39.7114 36.7338 40.3784 31.4518 39.8955M24.1616 37.9502C25.9523 39.057 28.6436 39.6388 31.4518 39.8955M31.4518 39.8955C31.4518 39.8955 31.542 40.0596 32.3592 40.0517C33.9385 42.6027 36.3428 47.5804 37.6565 51.269C39.3862 56.1259 35.1722 59.8705 34.1451 57.0006C33.118 54.1307 34.1451 51.2144 24.4446 45.6904C16.8098 41.3427 16.476 33.4859 13.9493 31.1475C11.4225 28.8091 8.15878 26.2582 5.00033 25.833" stroke="#D411A1" stroke-width="1.4" stroke-linecap="round"/>
</svg>
