<svg width="86" height="64" viewBox="0 0 86 64" fill="none" xmlns="http://www.w3.org/2000/svg">
<path d="M19.1724 47.7028C19.0561 47.7323 18.9484 47.7224 18.8493 47.6733C18.7588 47.6095 18.6989 47.5195 18.6694 47.4032L16.8254 40.1272L15.3423 40.5031C15.226 40.5325 15.1183 40.5227 15.0192 40.4735C14.9287 40.4098 14.8688 40.3198 14.8393 40.2034L14.689 39.6102C14.6595 39.4939 14.6708 39.392 14.7229 39.3045C14.7837 39.2024 14.8722 39.1367 14.9886 39.1072L16.4717 38.7313L16.2506 37.8589C15.7494 35.8814 16.4992 34.6391 18.5 34.1321L19.5469 33.8668C19.6632 33.8373 19.7666 33.8544 19.857 33.9182C19.9561 33.9673 20.0204 34.0501 20.0499 34.1664L20.2002 34.7596C20.2297 34.876 20.2141 34.9851 20.1533 35.0872C20.1012 35.1747 20.017 35.2332 19.9006 35.2626L18.8886 35.5191C18.3652 35.6518 18.0341 35.8842 17.8955 36.2165C17.7539 36.5371 17.7539 36.9765 17.8954 37.5349L18.0944 38.3201L20.3452 37.7496C20.4615 37.7202 20.5649 37.7373 20.6554 37.801C20.7545 37.8502 20.8188 37.9329 20.8482 38.0492L20.9986 38.6425C21.0281 38.7588 21.0124 38.868 20.9516 38.9701C20.8995 39.0576 20.8153 39.116 20.699 39.1455L18.4481 39.7159L20.2921 46.9919C20.3216 47.1082 20.3059 47.2174 20.2451 47.3195C20.193 47.407 20.1088 47.4655 19.9925 47.4949L19.1724 47.7028ZM24.9786 46.2313C24.8623 46.2608 24.7546 46.2509 24.6555 46.2018C24.5651 46.138 24.5051 46.048 24.4756 45.9317L22.384 37.6786C22.3546 37.5623 22.3644 37.4546 22.4136 37.3554C22.4743 37.2534 22.5629 37.1876 22.6792 37.1581L23.4818 36.9547C23.5982 36.9252 23.7074 36.9409 23.8094 37.0017C23.9115 37.0625 23.9773 37.151 24.0067 37.2674L24.2013 38.0351C24.4778 37.1232 25.1918 36.5214 26.3434 36.2295L27.0239 36.0571C27.1402 36.0276 27.2436 36.0447 27.334 36.1084C27.4331 36.1576 27.4974 36.2403 27.5269 36.3567L27.7082 37.0721C27.7377 37.1884 27.7205 37.2918 27.6568 37.3822C27.6047 37.4697 27.5205 37.5281 27.4042 37.5576L26.3573 37.8229C25.7291 37.9821 25.2819 38.2935 25.0156 38.7572C24.7464 39.2091 24.6914 39.7492 24.8506 40.3774L26.1507 45.5072C26.1802 45.6235 26.1645 45.7327 26.1037 45.8348C26.04 45.9252 25.9499 45.9851 25.8336 46.0146L24.9786 46.2313ZM34.7088 43.9511C33.5106 44.2547 32.4581 44.1315 31.5512 43.5814C30.653 43.0168 30.0068 42.1036 29.6127 40.8417L29.4449 40.2529L29.3165 39.6727C29.0795 38.3957 29.2215 37.2951 29.7424 36.3708C30.2749 35.4436 31.1286 34.8311 32.3035 34.5334C33.5946 34.2061 34.6997 34.3656 35.6185 35.0116C36.5345 35.646 37.1693 36.6612 37.5231 38.0571L37.5982 38.3537C37.6277 38.47 37.6121 38.5792 37.5513 38.6813C37.4992 38.7687 37.4149 38.8272 37.2986 38.8567L31.2615 40.3867L31.3013 40.5437C31.5278 41.291 31.9182 41.8791 32.4726 42.3081C33.0357 42.7224 33.6662 42.8412 34.3641 42.6643C34.8992 42.5287 35.3089 42.3135 35.5931 42.0186C35.8861 41.7091 36.0845 41.4175 36.1884 41.1435C36.2577 40.9774 36.3127 40.8768 36.3533 40.8418C36.4026 40.7921 36.4971 40.7496 36.6367 40.7143L37.4916 40.4976C37.5963 40.471 37.6909 40.478 37.7755 40.5185C37.86 40.559 37.9155 40.6315 37.9421 40.7362C38.0069 40.9921 37.9222 41.3417 37.6879 41.7848C37.4652 42.225 37.097 42.6526 36.5831 43.0675C36.078 43.4679 35.4532 43.7624 34.7088 43.9511ZM35.7372 37.9712L35.724 37.9188C35.5206 37.1162 35.1345 36.5208 34.5657 36.1326C34.0056 35.7299 33.3591 35.6214 32.6263 35.8071C31.8934 35.9928 31.3767 36.3961 31.076 37.017C30.784 37.6233 30.7397 38.3278 30.9431 39.1304L30.9564 39.1828L35.7372 37.9712ZM44.4724 41.4767C43.2742 41.7803 42.2217 41.6571 41.3148 41.107C40.4166 40.5424 39.7704 39.6292 39.3763 38.3673L39.2085 37.7785L39.0801 37.1982C38.8431 35.9213 38.9851 34.8207 39.506 33.8964C40.0385 32.9692 40.8922 32.3567 42.0671 32.059C43.3582 31.7317 44.4633 31.8911 45.3821 32.5372C46.2981 33.1716 46.9329 34.1868 47.2867 35.5827L47.3618 35.8793C47.3913 35.9956 47.3757 36.1048 47.3149 36.2069C47.2628 36.2943 47.1785 36.3528 47.0622 36.3823L41.0251 37.9123L41.0649 38.0693C41.2914 38.8166 41.6818 39.4047 42.2362 39.8337C42.7993 40.248 43.4298 40.3668 44.1277 40.1899C44.6628 40.0543 45.0725 39.8391 45.3567 39.5442C45.6497 39.2347 45.8481 38.943 45.952 38.6691C46.0213 38.503 46.0763 38.4024 46.1169 38.3674C46.1662 38.3177 46.2607 38.2752 46.4003 38.2398L47.2552 38.0232C47.3599 37.9966 47.4545 38.0036 47.5391 38.0441C47.6236 38.0846 47.6791 38.1571 47.7057 38.2618C47.7705 38.5177 47.6858 38.8673 47.4515 39.3104C47.2288 39.7506 46.8606 40.1782 46.3467 40.5931C45.8416 40.9935 45.2168 41.288 44.4724 41.4767ZM45.5008 35.4967L45.4876 35.4444C45.2841 34.6418 44.898 34.0464 44.3293 33.6582C43.7692 33.2555 43.1227 33.147 42.3899 33.3327C41.657 33.5184 41.1403 33.9217 40.8396 34.5426C40.5476 35.1489 40.5033 35.8534 40.7067 36.656L40.72 36.7084L45.5008 35.4967Z" fill="#D411A1"/>
<path d="M18.8493 47.6733L18.0427 48.8176L18.1307 48.8796L18.2272 48.9275L18.8493 47.6733ZM16.8254 40.1272L18.1825 39.7833L17.8386 38.4262L16.4815 38.7701L16.8254 40.1272ZM15.0192 40.4735L14.2126 41.6179L14.3006 41.6799L14.3971 41.7278L15.0192 40.4735ZM14.7229 39.3045L15.9257 40.0209L15.9257 40.0209L14.7229 39.3045ZM16.4717 38.7313L16.8156 40.0884L18.1727 39.7445L17.8288 38.3874L16.4717 38.7313ZM19.857 33.9182L19.0504 35.0625L19.1385 35.1245L19.235 35.1724L19.857 33.9182ZM20.1533 35.0872L21.3561 35.8036L21.3561 35.8036L20.1533 35.0872ZM17.8955 36.2165L19.1762 36.782L19.182 36.7689L19.1875 36.7556L17.8955 36.2165ZM18.0944 38.3201L16.7373 38.664L17.0812 40.0211L18.4383 39.6772L18.0944 38.3201ZM20.6554 37.801L19.8488 38.9453L19.9368 39.0074L20.0333 39.0552L20.6554 37.801ZM20.9516 38.9701L22.1544 39.6865L22.1544 39.6865L20.9516 38.9701ZM18.4481 39.7159L18.1042 38.3588L16.7471 38.7028L17.091 40.0599L18.4481 39.7159ZM20.2451 47.3195L19.0423 46.6031L20.2451 47.3195ZM18.8285 46.3457C18.9075 46.3257 19.0112 46.3123 19.1317 46.3233C19.254 46.3345 19.3696 46.3686 19.4713 46.419L18.2272 48.9275C18.652 49.1381 19.1056 49.164 19.5164 49.0599L18.8285 46.3457ZM19.6558 46.5289C19.7486 46.5943 19.8337 46.6798 19.9017 46.7819C19.9688 46.8827 20.0065 46.9803 20.0265 47.0592L17.3123 47.7471C17.4164 48.1578 17.6552 48.5444 18.0427 48.8176L19.6558 46.5289ZM20.0265 47.0592L18.1825 39.7833L15.4683 40.4711L17.3123 47.7471L20.0265 47.0592ZM16.4815 38.7701L14.9984 39.146L15.6863 41.8602L17.1694 41.4843L16.4815 38.7701ZM14.9984 39.146C15.0774 39.1259 15.1811 39.1126 15.3016 39.1236C15.4239 39.1348 15.5395 39.1689 15.6412 39.2193L14.3971 41.7278C14.8219 41.9384 15.2756 41.9642 15.6863 41.8602L14.9984 39.146ZM15.8257 39.3292C15.9185 39.3946 16.0036 39.4801 16.0716 39.5822C16.1387 39.683 16.1764 39.7806 16.1964 39.8595L13.4822 40.5474C13.5863 40.9581 13.8251 41.3447 14.2126 41.6179L15.8257 39.3292ZM16.1964 39.8595L16.0461 39.2663L13.3319 39.9541L13.4822 40.5474L16.1964 39.8595ZM16.0461 39.2663C16.0657 39.3436 16.0825 39.4593 16.0668 39.601C16.0506 39.7473 16.0027 39.8917 15.9257 40.0209L13.5201 38.5881C13.2443 39.051 13.2287 39.547 13.3319 39.9541L16.0461 39.2663ZM15.9257 40.0209C15.8689 40.1163 15.7849 40.217 15.6697 40.3025C15.5547 40.3879 15.4359 40.4381 15.3325 40.4643L14.6446 37.7501C14.1725 37.8697 13.773 38.1634 13.5201 38.5881L15.9257 40.0209ZM15.3325 40.4643L16.8156 40.0884L16.1278 37.3742L14.6446 37.7501L15.3325 40.4643ZM17.8288 38.3874L17.6077 37.515L14.8935 38.2028L15.1146 39.0752L17.8288 38.3874ZM17.6077 37.515C17.4111 36.7395 17.5214 36.3569 17.6357 36.1675C17.7521 35.9746 18.0488 35.6907 18.8439 35.4892L18.156 32.775C16.9504 33.0805 15.8718 33.6713 15.2385 34.7206C14.603 35.7736 14.5889 37.0009 14.8935 38.2028L17.6077 37.515ZM18.8439 35.4892L19.8908 35.2239L19.2029 32.5097L18.156 32.775L18.8439 35.4892ZM19.8908 35.2239C19.7888 35.2497 19.6474 35.266 19.4828 35.2387C19.315 35.2109 19.1677 35.1451 19.0504 35.0625L20.6636 32.7738C20.2084 32.453 19.6775 32.3894 19.2029 32.5097L19.8908 35.2239ZM19.235 35.1724C19.1065 35.1087 18.9785 35.0105 18.8741 34.8761C18.7717 34.7444 18.7186 34.6123 18.6928 34.5103L21.407 33.8225C21.2867 33.3479 20.978 32.9114 20.4791 32.6639L19.235 35.1724ZM18.6928 34.5103L18.8431 35.1036L21.5573 34.4157L21.407 33.8225L18.6928 34.5103ZM18.8431 35.1036C18.8169 35.0001 18.8045 34.8718 18.8248 34.7301C18.8451 34.588 18.8936 34.4662 18.9505 34.3708L21.3561 35.8036C21.609 35.3789 21.677 34.8878 21.5573 34.4157L18.8431 35.1036ZM18.9505 34.3708C19.0274 34.2416 19.1316 34.1307 19.2525 34.0467C19.3696 33.9654 19.4793 33.9252 19.5567 33.9055L20.2446 36.6197C20.6517 36.5166 21.0803 36.2666 21.3561 35.8036L18.9505 34.3708ZM19.5567 33.9055L18.5447 34.162L19.2326 36.8762L20.2446 36.6197L19.5567 33.9055ZM18.5447 34.162C17.8155 34.3468 16.9838 34.7659 16.6035 35.6774L19.1875 36.7556C19.1674 36.8039 19.1406 36.8467 19.1119 36.8812C19.0839 36.9149 19.0607 36.9328 19.0523 36.9387C19.0447 36.9441 19.052 36.9376 19.0822 36.9247C19.1125 36.9118 19.1611 36.8943 19.2326 36.8762L18.5447 34.162ZM16.6148 35.6509C16.2883 36.3904 16.3655 37.1968 16.5383 37.8788L19.2525 37.191C19.202 36.9916 19.1893 36.8609 19.1893 36.7866C19.1893 36.7138 19.2013 36.7251 19.1762 36.782L16.6148 35.6509ZM16.5383 37.8788L16.7373 38.664L19.4515 37.9761L19.2525 37.191L16.5383 37.8788ZM18.4383 39.6772L20.6892 39.1067L20.0013 36.3925L17.7505 36.963L18.4383 39.6772ZM20.6892 39.1067C20.5871 39.1326 20.4457 39.1488 20.2811 39.1215C20.1133 39.0937 19.966 39.028 19.8488 38.9453L21.4619 36.6567C21.0067 36.3359 20.4758 36.2723 20.0013 36.3925L20.6892 39.1067ZM20.0333 39.0552C19.9048 38.9915 19.7768 38.8933 19.6725 38.759C19.5701 38.6273 19.517 38.4952 19.4911 38.3932L22.2053 37.7053C22.0851 37.2308 21.7763 36.7943 21.2774 36.5468L20.0333 39.0552ZM19.4911 38.3932L19.6415 38.9864L22.3557 38.2986L22.2053 37.7053L19.4911 38.3932ZM19.6415 38.9864C19.6153 38.883 19.6028 38.7547 19.6231 38.6129C19.6435 38.4709 19.692 38.3491 19.7488 38.2537L22.1544 39.6865C22.4074 39.2618 22.4753 38.7707 22.3557 38.2986L19.6415 38.9864ZM19.7488 38.2537C19.8258 38.1245 19.93 38.0135 20.0508 37.9296C20.1679 37.8483 20.2777 37.808 20.3551 37.7884L21.0429 40.5026C21.45 40.3994 21.8787 40.1494 22.1544 39.6865L19.7488 38.2537ZM20.3551 37.7884L18.1042 38.3588L18.7921 41.073L21.0429 40.5026L20.3551 37.7884ZM17.091 40.0599L18.935 47.3359L21.6492 46.648L19.8052 39.372L17.091 40.0599ZM18.935 47.3359C18.9088 47.2324 18.8963 47.1041 18.9166 46.9624C18.937 46.8203 18.9855 46.6985 19.0423 46.6031L21.4479 48.0359C21.7009 47.6112 21.7689 47.1201 21.6492 46.648L18.935 47.3359ZM19.0423 46.6031C19.1193 46.4739 19.2235 46.363 19.3444 46.279C19.4615 46.1977 19.5712 46.1575 19.6486 46.1378L20.3364 48.852C20.7435 48.7489 21.1722 48.4989 21.4479 48.0359L19.0423 46.6031ZM19.6486 46.1378L18.8285 46.3457L19.5164 49.0599L20.3364 48.852L19.6486 46.1378ZM24.6555 46.2018L23.8489 47.3461L23.937 47.4081L24.0334 47.456L24.6555 46.2018ZM22.4136 37.3554L21.2107 36.639L21.1832 36.6852L21.1593 36.7334L22.4136 37.3554ZM23.8094 37.0017L23.093 38.2045L23.093 38.2045L23.8094 37.0017ZM24.2013 38.0351L22.8442 38.379L24.0807 43.2581L25.5411 38.4413L24.2013 38.0351ZM27.334 36.1084L26.5274 37.2528L26.6155 37.3148L26.7119 37.3627L27.334 36.1084ZM27.6568 37.3822L26.5125 36.5756L26.4815 36.6196L26.454 36.6658L27.6568 37.3822ZM25.0156 38.7572L26.2185 39.4736L26.2241 39.464L26.2297 39.4544L25.0156 38.7572ZM26.1037 45.8348L27.248 46.6413L27.279 46.5974L27.3065 46.5512L26.1037 45.8348ZM24.6347 44.8742C24.7137 44.8542 24.8174 44.8408 24.938 44.8518C25.0602 44.863 25.1759 44.8971 25.2775 44.9476L24.0334 47.456C24.4582 47.6667 24.9119 47.6925 25.3226 47.5884L24.6347 44.8742ZM25.462 45.0575C25.5548 45.1229 25.6399 45.2083 25.708 45.3105C25.775 45.4112 25.8127 45.5088 25.8327 45.5878L23.1185 46.2756C23.2226 46.6863 23.4614 47.073 23.8489 47.3461L25.462 45.0575ZM25.8327 45.5878L23.7411 37.3347L21.0269 38.0225L23.1185 46.2756L25.8327 45.5878ZM23.7411 37.3347C23.7611 37.4136 23.7745 37.5174 23.7635 37.6379C23.7523 37.7601 23.7182 37.8758 23.6678 37.9775L21.1593 36.7334C20.9487 37.1581 20.9229 37.6118 21.0269 38.0225L23.7411 37.3347ZM23.6164 38.0719C23.5595 38.1673 23.4755 38.2679 23.3603 38.3535C23.2453 38.4389 23.1266 38.489 23.0232 38.5152L22.3353 35.801C21.8631 35.9207 21.4637 36.2143 21.2107 36.639L23.6164 38.0719ZM23.0232 38.5152L23.8258 38.3118L23.1379 35.5976L22.3353 35.801L23.0232 38.5152ZM23.8258 38.3118C23.7224 38.338 23.5941 38.3505 23.4523 38.3302C23.3102 38.3098 23.1884 38.2613 23.093 38.2045L24.5258 35.7989C24.1012 35.5459 23.6101 35.478 23.1379 35.5976L23.8258 38.3118ZM23.093 38.2045C22.9976 38.1477 22.8969 38.0637 22.8114 37.9484C22.726 37.8335 22.6758 37.7147 22.6496 37.6113L25.3638 36.9234C25.2442 36.4513 24.9505 36.0518 24.5258 35.7989L23.093 38.2045ZM22.6496 37.6113L22.8442 38.379L25.5584 37.6912L25.3638 36.9234L22.6496 37.6113ZM25.5411 38.4413C25.6388 38.1191 25.8756 37.7923 26.6873 37.5866L25.9995 34.8724C24.5079 35.2504 23.3168 36.1274 22.8615 37.6289L25.5411 38.4413ZM26.6873 37.5866L27.3678 37.4142L26.6799 34.7L25.9995 34.8724L26.6873 37.5866ZM27.3678 37.4142C27.2658 37.44 27.1244 37.4562 26.9598 37.429C26.792 37.4012 26.6447 37.3354 26.5274 37.2528L28.1406 34.9641C27.6853 34.6433 27.1545 34.5797 26.6799 34.7L27.3678 37.4142ZM26.7119 37.3627C26.5835 37.2989 26.4555 37.2007 26.3511 37.0664C26.2487 36.9347 26.1956 36.8026 26.1698 36.7006L28.884 36.0127C28.7637 35.5382 28.455 35.1017 27.9561 34.8542L26.7119 37.3627ZM26.1698 36.7006L26.3511 37.416L29.0653 36.7281L28.884 36.0127L26.1698 36.7006ZM26.3511 37.416C26.3252 37.314 26.309 37.1726 26.3363 37.008C26.3641 36.8401 26.4299 36.6928 26.5125 36.5756L28.8011 38.1887C29.122 37.7335 29.1855 37.2027 29.0653 36.7281L26.3511 37.416ZM26.454 36.6658C26.5309 36.5366 26.6351 36.4257 26.756 36.3417C26.8731 36.2604 26.9829 36.2201 27.0602 36.2005L27.7481 38.9147C28.1552 38.8116 28.5839 38.5616 28.8596 38.0986L26.454 36.6658ZM27.0602 36.2005L26.0133 36.4658L26.7012 39.18L27.7481 38.9147L27.0602 36.2005ZM26.0133 36.4658C25.1013 36.697 24.2956 37.1997 23.8016 38.0599L26.2297 39.4544C26.2682 39.3873 26.3569 39.2673 26.7012 39.18L26.0133 36.4658ZM23.8128 38.0407C23.3115 38.8825 23.2655 39.8217 23.4935 40.7213L26.2077 40.0334C26.1173 39.6767 26.1814 39.5358 26.2185 39.4736L23.8128 38.0407ZM23.4935 40.7213L24.7936 45.8511L27.5078 45.1632L26.2077 40.0334L23.4935 40.7213ZM24.7936 45.8511C24.7674 45.7477 24.7549 45.6194 24.7752 45.4776C24.7956 45.3356 24.8441 45.2138 24.9009 45.1183L27.3065 46.5512C27.5595 46.1265 27.6274 45.6354 27.5078 45.1632L24.7936 45.8511ZM24.9594 45.0282C25.0248 44.9354 25.1102 44.8503 25.2124 44.7823C25.3131 44.7152 25.4107 44.6775 25.4897 44.6575L26.1775 47.3717C26.5883 47.2676 26.9749 47.0288 27.248 46.6413L24.9594 45.0282ZM25.4897 44.6575L24.6347 44.8742L25.3226 47.5884L26.1775 47.3717L25.4897 44.6575ZM31.5512 43.5814L30.8061 44.7667L30.8156 44.7727L30.8252 44.7785L31.5512 43.5814ZM29.6127 40.8417L28.2663 41.2254L28.2711 41.2423L28.2764 41.259L29.6127 40.8417ZM29.4449 40.2529L28.078 40.5555L28.0871 40.5964L28.0985 40.6366L29.4449 40.2529ZM29.3165 39.6727L27.94 39.9281L27.9444 39.9518L27.9496 39.9753L29.3165 39.6727ZM29.7424 36.3708L28.5283 35.6736L28.5227 35.6835L29.7424 36.3708ZM35.6185 35.0116L34.8133 36.1569L34.8214 36.1625L35.6185 35.0116ZM37.5513 38.6813L38.7541 39.3977L38.7541 39.3977L37.5513 38.6813ZM31.2615 40.3867L30.9176 39.0296L29.5605 39.3735L29.9044 40.7306L31.2615 40.3867ZM31.3013 40.5437L29.9442 40.8877L29.9521 40.919L29.9615 40.9499L31.3013 40.5437ZM32.4726 42.3081L31.6159 43.4153L31.6292 43.4256L31.6428 43.4356L32.4726 42.3081ZM35.5931 42.0186L36.6011 42.9903L36.6098 42.9811L35.5931 42.0186ZM36.1884 41.1435L34.8964 40.6044L34.8875 40.6256L34.8794 40.6471L36.1884 41.1435ZM36.3533 40.8418L37.2679 41.9018L37.3086 41.8667L37.3465 41.8285L36.3533 40.8418ZM37.7755 40.5185L37.1709 41.7812L37.1709 41.7812L37.7755 40.5185ZM37.6879 41.7848L36.4503 41.1304L36.4443 41.1416L36.4386 41.1529L37.6879 41.7848ZM36.5832 43.0675L37.4528 44.1647L37.4627 44.1567L36.5832 43.0675ZM35.7372 37.9712L36.0812 39.3282L37.4383 38.9843L37.0943 37.6272L35.7372 37.9712ZM34.5657 36.1326L33.7483 37.2693L33.7623 37.2793L33.7765 37.289L34.5657 36.1326ZM31.076 37.017L29.816 36.4068L29.8146 36.4096L31.076 37.017ZM30.9564 39.1828L29.5993 39.5267L29.9432 40.8838L31.3003 40.5399L30.9564 39.1828ZM34.3648 42.594C33.4653 42.8219 32.8101 42.7076 32.2772 42.3844L30.8252 44.7785C32.1061 45.5554 33.556 45.6875 35.0527 45.3082L34.3648 42.594ZM32.2963 42.3962C31.7446 42.0494 31.269 41.4489 30.9491 40.4244L28.2764 41.259C28.7446 42.7582 29.5614 43.9842 30.8061 44.7667L32.2963 42.3962ZM30.9591 40.458L30.7913 39.8692L28.0985 40.6366L28.2663 41.2254L30.9591 40.458ZM30.8118 39.9502L30.6834 39.37L27.9496 39.9753L28.078 40.5555L30.8118 39.9502ZM30.693 39.4172C30.502 38.3882 30.6362 37.6363 30.962 37.0582L28.5227 35.6835C27.8067 36.954 27.657 38.4032 27.94 39.9281L30.693 39.4172ZM30.9564 37.0681C31.2743 36.5146 31.7862 36.1087 32.6474 35.8905L31.9595 33.1763C30.4709 33.5535 29.2755 34.3726 28.5283 35.6736L30.9564 37.0681ZM32.6474 35.8905C33.6239 35.643 34.2911 35.7897 34.8133 36.1569L36.4238 33.8664C35.1083 32.9414 33.5653 32.7693 31.9595 33.1763L32.6474 35.8905ZM34.8214 36.1625C35.3861 36.5537 35.8704 37.2348 36.166 38.401L38.8802 37.7131C38.4682 36.0876 37.6828 34.7384 36.4157 33.8607L34.8214 36.1625ZM36.166 38.401L36.2411 38.6976L38.9553 38.0098L38.8802 37.7131L36.166 38.401ZM36.2411 38.6976C36.2149 38.5942 36.2024 38.4659 36.2228 38.3241C36.2431 38.1821 36.2916 38.0603 36.3485 37.9649L38.7541 39.3977C39.007 38.973 39.075 38.4819 38.9553 38.0098L36.2411 38.6976ZM36.3485 37.9649C36.4254 37.8357 36.5296 37.7247 36.6505 37.6408C36.7676 37.5595 36.8773 37.5192 36.9547 37.4996L37.6426 40.2138C38.0496 40.1106 38.4783 39.8606 38.7541 39.3977L36.3485 37.9649ZM36.9547 37.4996L30.9176 39.0296L31.6054 41.7438L37.6426 40.2138L36.9547 37.4996ZM29.9044 40.7306L29.9442 40.8877L32.6584 40.1998L32.6186 40.0428L29.9044 40.7306ZM29.9615 40.9499C30.2623 41.9422 30.8056 42.7884 31.6159 43.4153L33.3294 41.2008C33.0308 40.9698 32.7933 40.6398 32.6411 40.1376L29.9615 40.9499ZM31.6428 43.4356C32.5546 44.1066 33.6182 44.2976 34.708 44.0214L34.0202 41.3072C33.7141 41.3848 33.5168 41.3382 33.3024 41.1805L31.6428 43.4356ZM34.708 44.0214C35.4108 43.8433 36.083 43.5276 36.601 42.9903L34.5852 41.0469C34.5347 41.0994 34.3876 41.2141 34.0202 41.3072L34.708 44.0214ZM36.6098 42.9811C36.977 42.5932 37.3051 42.147 37.4974 41.64L34.8794 40.6471C34.8639 40.6879 34.7951 40.8251 34.5764 41.0561L36.6098 42.9811ZM37.4804 41.6826C37.5056 41.6225 37.5154 41.6053 37.5101 41.6149C37.5072 41.6202 37.4922 41.6476 37.4645 41.6869C37.4501 41.7073 37.4284 41.7365 37.3991 41.7706C37.3705 41.8038 37.327 41.8507 37.2679 41.9018L35.4388 39.7818C35.2142 39.9755 35.0907 40.2033 35.0531 40.2721C34.9929 40.3823 34.9406 40.4985 34.8964 40.6044L37.4804 41.6826ZM37.3465 41.8285C37.2072 41.9686 37.0766 42.0309 37.0357 42.0493C36.9861 42.0717 36.9618 42.0761 36.9806 42.0713L36.2927 39.3572C36.1172 39.4016 35.6961 39.5169 35.3602 39.855L37.3465 41.8285ZM36.9806 42.0713L37.8356 41.8547L37.1477 39.1405L36.2927 39.3572L36.9806 42.0713ZM37.8356 41.8547C37.6738 41.8957 37.426 41.9034 37.1709 41.7812L38.3801 39.2558C37.9559 39.0527 37.5188 39.0464 37.1477 39.1405L37.8356 41.8547ZM37.1709 41.7812C37.0192 41.7086 36.8786 41.5977 36.7686 41.454C36.6622 41.3149 36.61 41.1787 36.585 41.0802L39.2992 40.3923C39.1879 39.9534 38.8988 39.5041 38.3801 39.2558L37.1709 41.7812ZM36.585 41.0802C36.5646 40.9997 36.5622 40.9365 36.5634 40.8998C36.5646 40.8639 36.5693 40.8494 36.5666 40.8605C36.564 40.8713 36.556 40.8996 36.5368 40.9473C36.5178 40.9945 36.49 41.0553 36.4503 41.1304L38.9255 42.4392C39.1941 41.9314 39.4984 41.1785 39.2992 40.3923L36.585 41.0802ZM36.4386 41.1529C36.3303 41.3671 36.1127 41.6479 35.7036 41.9783L37.4627 44.1567C38.0812 43.6572 38.6001 43.083 38.9371 42.4168L36.4386 41.1529ZM35.7135 41.9704C35.3901 42.2267 34.9538 42.4447 34.3648 42.594L35.0527 45.3082C35.9526 45.0801 36.7659 44.7091 37.4528 44.1647L35.7135 41.9704ZM37.0943 37.6272L37.0811 37.5749L34.3669 38.2627L34.3801 38.3151L37.0943 37.6272ZM37.0811 37.5749C36.8116 36.5116 36.2604 35.5942 35.3548 34.9762L33.7765 37.289C34.0085 37.4474 34.2295 37.7208 34.3669 38.2627L37.0811 37.5749ZM35.383 34.996C34.4525 34.3269 33.3723 34.1738 32.2823 34.45L32.9702 37.1642C33.3458 37.069 33.5586 37.1328 33.7483 37.2693L35.383 34.996ZM32.2823 34.45C31.1923 34.7262 30.3155 35.3754 29.816 36.4068L32.336 37.6272C32.4379 37.4169 32.5945 37.2594 32.9702 37.1642L32.2823 34.45ZM29.8146 36.4096C29.3494 37.3756 29.3211 38.4291 29.586 39.4744L32.3002 38.7865C32.1583 38.2265 32.2186 37.8711 32.3373 37.6245L29.8146 36.4096ZM29.586 39.4744L29.5993 39.5267L32.3135 38.8388L32.3002 38.7865L29.586 39.4744ZM31.3003 40.5399L36.0812 39.3282L35.3933 36.6141L30.6124 37.8257L31.3003 40.5399ZM41.3148 41.107L40.5697 42.2923L40.5792 42.2983L40.5888 42.3041L41.3148 41.107ZM39.3763 38.3673L38.0299 38.751L38.0347 38.7679L38.04 38.7846L39.3763 38.3673ZM39.2085 37.7785L37.8416 38.0811L37.8507 38.1219L37.8621 38.1621L39.2085 37.7785ZM39.0801 37.1982L37.7036 37.4537L37.708 37.4774L37.7132 37.5009L39.0801 37.1982ZM39.506 33.8964L38.2919 33.1992L38.2863 33.2091L39.506 33.8964ZM45.3821 32.5372L44.5769 33.6825L44.585 33.6881L45.3821 32.5372ZM47.3149 36.2069L48.5177 36.9233L48.5177 36.9233L47.3149 36.2069ZM41.0251 37.9123L40.6812 36.5552L39.3241 36.8991L39.668 38.2562L41.0251 37.9123ZM41.0649 38.0693L39.7078 38.4133L39.7157 38.4446L39.7251 38.4755L41.0649 38.0693ZM42.2362 39.8337L41.3795 40.9409L41.3928 40.9512L41.4064 40.9612L42.2362 39.8337ZM45.3567 39.5442L46.3647 40.5159L46.3734 40.5067L45.3567 39.5442ZM45.952 38.6691L44.66 38.13L44.6511 38.1512L44.643 38.1726L45.952 38.6691ZM46.1169 38.3674L47.0315 39.4274L47.0722 39.3923L47.1101 39.3541L46.1169 38.3674ZM47.5391 38.0441L46.9345 39.3068L46.9345 39.3068L47.5391 38.0441ZM47.4515 39.3104L46.2139 38.656L46.2079 38.6672L46.2022 38.6784L47.4515 39.3104ZM46.3467 40.5931L47.2164 41.6903L47.2263 41.6823L46.3467 40.5931ZM45.5008 35.4967L45.8448 36.8538L47.2019 36.5099L46.8579 35.1528L45.5008 35.4967ZM44.3293 33.6582L43.5119 34.7949L43.5259 34.8049L43.5401 34.8146L44.3293 33.6582ZM40.8396 34.5426L39.5796 33.9324L39.5782 33.9352L40.8396 34.5426ZM40.72 36.7084L39.3629 37.0523L39.7068 38.4094L41.0639 38.0655L40.72 36.7084ZM44.1284 40.1196C43.2289 40.3475 42.5737 40.2332 42.0408 39.91L40.5888 42.3041C41.8697 43.081 43.3196 43.2131 44.8163 42.8338L44.1284 40.1196ZM42.0599 39.9218C41.5082 39.575 41.0326 38.9745 40.7127 37.95L38.04 38.7846C38.5082 40.2838 39.325 41.5098 40.5697 42.2923L42.0599 39.9218ZM40.7227 37.9836L40.5549 37.3948L37.8621 38.1621L38.0299 38.751L40.7227 37.9836ZM40.5754 37.4758L40.447 36.8956L37.7132 37.5009L37.8416 38.0811L40.5754 37.4758ZM40.4566 36.9428C40.2656 35.9138 40.3998 35.1619 40.7256 34.5838L38.2863 33.2091C37.5703 34.4796 37.4206 35.9288 37.7036 37.4537L40.4566 36.9428ZM40.72 34.5937C41.0379 34.0402 41.5498 33.6343 42.411 33.4161L41.7231 30.7019C40.2345 31.0791 39.0391 31.8982 38.2919 33.1992L40.72 34.5937ZM42.411 33.4161C43.3875 33.1686 44.0547 33.3153 44.5769 33.6825L46.1874 31.392C44.8719 30.467 43.3289 30.2949 41.7231 30.7019L42.411 33.4161ZM44.585 33.6881C45.1497 34.0793 45.634 34.7604 45.9296 35.9266L48.6438 35.2387C48.2318 33.6132 47.4464 32.264 46.1793 31.3863L44.585 33.6881ZM45.9296 35.9266L46.0047 36.2232L48.7189 35.5354L48.6438 35.2387L45.9296 35.9266ZM46.0047 36.2232C45.9785 36.1198 45.966 35.9915 45.9864 35.8497C46.0067 35.7077 46.0552 35.5859 46.1121 35.4904L48.5177 36.9233C48.7706 36.4986 48.8386 36.0075 48.7189 35.5354L46.0047 36.2232ZM46.1121 35.4904C46.189 35.3613 46.2932 35.2503 46.4141 35.1664C46.5312 35.0851 46.6409 35.0448 46.7183 35.0252L47.4062 37.7394C47.8132 37.6362 48.2419 37.3862 48.5177 36.9233L46.1121 35.4904ZM46.7183 35.0252L40.6812 36.5552L41.369 39.2694L47.4062 37.7394L46.7183 35.0252ZM39.668 38.2562L39.7078 38.4133L42.422 37.7254L42.3822 37.5684L39.668 38.2562ZM39.7251 38.4755C40.0259 39.4678 40.5692 40.314 41.3795 40.9409L43.093 38.7264C42.7944 38.4954 42.5569 38.1654 42.4047 37.6632L39.7251 38.4755ZM41.4064 40.9612C42.3182 41.6322 43.3818 41.8232 44.4716 41.547L43.7838 38.8328C43.4777 38.9104 43.2804 38.8638 43.066 38.7061L41.4064 40.9612ZM44.4716 41.547C45.1744 41.3689 45.8466 41.0532 46.3646 40.5158L44.3488 38.5725C44.2983 38.625 44.1512 38.7397 43.7838 38.8328L44.4716 41.547ZM46.3734 40.5067C46.7406 40.1188 47.0687 39.6726 47.261 39.1656L44.643 38.1726C44.6275 38.2135 44.5587 38.3507 44.34 38.5817L46.3734 40.5067ZM47.244 39.2082C47.2691 39.148 47.279 39.1309 47.2737 39.1405C47.2708 39.1458 47.2558 39.1732 47.2281 39.2125C47.2137 39.2329 47.192 39.2621 47.1627 39.2962C47.1341 39.3294 47.0906 39.3763 47.0315 39.4274L45.2024 37.3074C44.9778 37.5011 44.8543 37.7289 44.8167 37.7977C44.7565 37.9079 44.7042 38.0241 44.66 38.13L47.244 39.2082ZM47.1101 39.3541C46.9708 39.4942 46.8402 39.5565 46.7993 39.5749C46.7497 39.5973 46.7254 39.6017 46.7442 39.5969L46.0563 36.8828C45.8808 36.9272 45.4597 37.0425 45.1238 37.3806L47.1101 39.3541ZM46.7442 39.5969L47.5992 39.3803L46.9113 36.6661L46.0563 36.8828L46.7442 39.5969ZM47.5992 39.3803C47.4374 39.4213 47.1896 39.429 46.9345 39.3068L48.1437 36.7814C47.7195 36.5783 47.2824 36.572 46.9113 36.6661L47.5992 39.3803ZM46.9345 39.3068C46.7828 39.2342 46.6422 39.1233 46.5322 38.9796C46.4258 38.8405 46.3736 38.7043 46.3486 38.6058L49.0628 37.9179C48.9515 37.479 48.6624 37.0297 48.1437 36.7814L46.9345 39.3068ZM46.3486 38.6058C46.3282 38.5253 46.3258 38.4621 46.327 38.4254C46.3282 38.3895 46.3329 38.375 46.3302 38.3861C46.3276 38.3969 46.3196 38.4252 46.3004 38.4729C46.2814 38.5201 46.2536 38.5809 46.2139 38.656L48.6891 39.9648C48.9577 39.457 49.262 38.7041 49.0628 37.9179L46.3486 38.6058ZM46.2022 38.6784C46.0939 38.8927 45.8763 39.1735 45.4672 39.5039L47.2263 41.6823C47.8448 41.1828 48.3637 40.6086 48.7007 39.9424L46.2022 38.6784ZM45.4771 39.4959C45.1537 39.7523 44.7174 39.9703 44.1284 40.1196L44.8163 42.8338C45.7162 42.6057 46.5295 42.2346 47.2164 41.6903L45.4771 39.4959ZM46.8579 35.1528L46.8447 35.1005L44.1305 35.7883L44.1437 35.8407L46.8579 35.1528ZM46.8447 35.1005C46.5752 34.0372 46.024 33.1198 45.1184 32.5018L43.5401 34.8146C43.7721 34.973 43.9931 35.2464 44.1305 35.7883L46.8447 35.1005ZM45.1466 32.5216C44.2161 31.8525 43.1359 31.6993 42.0459 31.9756L42.7338 34.6898C43.1094 34.5946 43.3222 34.6584 43.5119 34.7949L45.1466 32.5216ZM42.0459 31.9756C40.9559 32.2518 40.0791 32.901 39.5796 33.9324L42.0996 35.1528C42.2015 34.9425 42.3581 34.785 42.7338 34.6898L42.0459 31.9756ZM39.5782 33.9352C39.113 34.9012 39.0847 35.9547 39.3496 37L42.0638 36.3121C41.9219 35.7521 41.9822 35.3967 42.1009 35.1501L39.5782 33.9352ZM39.3496 37L39.3629 37.0523L42.0771 36.3644L42.0638 36.3121L39.3496 37ZM41.0639 38.0655L45.8448 36.8538L45.1569 34.1397L40.376 35.3513L41.0639 38.0655Z" fill="#D411A1"/>
<path d="M55.3214 14.8757L77.6062 27.5161L63.6467 48.9992L13.2346 61.3755C11.087 61.9027 8.91908 60.5873 8.39493 58.4389L1.96583 32.0875C1.44274 29.9435 2.75491 27.7809 4.89815 27.2548L55.3214 14.8757Z" stroke="#D411A1" stroke-width="1.4" stroke-linecap="round"/>
<circle cx="59.481" cy="31.9369" r="5.27887" transform="rotate(76.2891 59.481 31.9369)" stroke="#D411A1" stroke-width="1.4" stroke-linecap="round"/>
<path d="M60.2624 31.5571C72.2946 27.8785 91.0882 6.83893 79.8651 5.15764C71.5766 3.91597 64.744 13.7624 63.2658 18.7602" stroke="#D411A1" stroke-width="1.4" stroke-linecap="round"/>
</svg>
