<svg width="100" height="80" viewBox="0 0 100 80" fill="none" xmlns="http://www.w3.org/2000/svg">
<path d="M37.7231 14.7546C37.7231 14.7546 64.0047 14.0302 65.2598 14.7545C66.5149 15.4789 65.7828 49.0322 65.2598 65.7183C57.9383 66.3338 37.7231 65.7183 37.7231 65.7183" stroke="#D411A1" stroke-width="1.4" stroke-linecap="round"/>
<path d="M3 15.0901C14.7297 10.8183 37.6106 8 37.6106 8C37.6106 8 37.6106 47.9356 37.6106 72.2416C21.9196 72.2416 3 65.1515 3 65.1515C3 65.1515 3.00006 40.8881 3 15.0901Z" stroke="#D411A1" stroke-width="1.4" stroke-linecap="round"/>
<path d="M45.0139 25.6315H58.208" stroke="#D411A1" stroke-width="1.4" stroke-linecap="round"/>
<path d="M45.0139 35.2908H58.208" stroke="#D411A1" stroke-width="1.4" stroke-linecap="round" stroke-linejoin="round"/>
<path d="M45.0139 44.9504H58.208" stroke="#D411A1" stroke-width="1.4" stroke-linecap="round" stroke-linejoin="round"/>
<path d="M45.0139 54.6101H58.208" stroke="#D411A1" stroke-width="1.4" stroke-linecap="round" stroke-linejoin="round"/>
<path d="M28.7337 23.4913C27.8822 24.3428 17.972 42.7677 13.1233 51.8737" stroke="#D411A1" stroke-width="1.4" stroke-linecap="round" stroke-linejoin="round"/>
<path d="M12.3223 26.6606C12.9234 27.5699 23.5926 45.8978 28.852 54.9482" stroke="#D411A1" stroke-width="1.4" stroke-linecap="round" stroke-linejoin="round"/>
</svg>
