<svg width="100" height="80" viewBox="0 0 100 80" fill="none" xmlns="http://www.w3.org/2000/svg">
<g clip-path="url(#clip0)">
<g opacity="0.5">
<path d="M8.79541 62.8523V10C8.79541 5.58172 12.3771 2 16.7954 2H73.2386C77.6569 2 81.2386 5.58172 81.2386 10V62.8523" stroke="#CAC2D3" stroke-width="1.4"/>
<path d="M16.5227 62.8521V13.7612C16.5227 10.9998 18.7613 8.76123 21.5227 8.76123H29.7657C30.8617 8.76123 31.9097 9.21098 32.6649 10.0054L33.149 10.5147C33.9041 11.3091 34.9522 11.7589 36.0482 11.7589H53.2735C54.3695 11.7589 55.4175 11.3091 56.1727 10.5147L56.6568 10.0054C57.412 9.21098 58.46 8.76123 59.556 8.76123H68.5113C71.2728 8.76123 73.5113 10.9998 73.5113 13.7612V62.8521" stroke="#CAC2D3" stroke-width="1.4"/>
<path d="M43.1225 45.8456C42.8442 45.639 42.4269 45.639 42.1487 45.8456L34.0103 51.0793C33.3147 51.5613 32.4104 50.8727 32.6191 50.0463L35.1928 40.7497C35.2623 40.4053 35.1928 40.061 34.9145 39.8544L30.0454 35.998C30.115 36.4112 30.115 36.8933 30.1845 37.3065C30.6019 39.7167 31.6453 41.9892 33.106 43.8485C33.2451 44.0551 33.3147 44.3306 33.2451 44.6061L31.7844 49.9086C31.5757 50.3906 31.7148 51.0104 32.0626 51.4236C32.4104 51.8368 32.9669 52.1122 33.5234 52.1122C33.8711 52.1122 34.2189 52.0434 34.4972 51.8368L39.2272 48.8068C39.4359 48.669 39.7141 48.6002 39.9923 48.7379C41.5226 49.2888 43.192 49.5643 44.8615 49.5643C46.044 49.5643 47.1569 49.4265 48.2698 49.1511L43.1225 45.8456Z" fill="#9E8EAE"/>
<path d="M59.608 33.1059C58.8428 26.3572 53.3477 20.8481 46.4614 20.0906C38.4621 19.2642 31.5757 24.7045 30.1846 32.0729L37.5578 31.7286C37.9056 31.7286 38.1838 31.522 38.323 31.1777L41.94 21.7433C42.2183 21.1235 43.1225 21.1235 43.3312 21.7433L46.9483 31.1777C47.0874 31.522 47.3656 31.7286 47.7134 31.7286L57.9386 32.2107C58.6342 32.2107 58.9124 33.1059 58.3559 33.5191L50.4262 39.8546C50.148 40.0612 50.0089 40.4055 50.148 40.7498L52.0261 47.6362C57.1039 44.9505 60.3036 39.3725 59.608 33.1059Z" fill="#9E8EAE"/>
<path d="M59.608 33.106C58.8428 26.3574 53.3477 20.8482 46.4613 20.0907C39.5055 19.3332 33.3843 23.3962 30.9497 29.3874C33.5234 27.1149 36.7927 25.6687 40.4793 25.531L41.94 21.7435C42.2182 21.1237 43.1225 21.1237 43.3312 21.7435L45.0006 26.0819C48.409 27.046 51.4 29.1808 53.3477 32.0042L57.9386 32.2108C58.6341 32.2108 58.9124 33.106 58.3559 33.5192L55.2258 35.9983C55.6431 37.3756 55.8518 38.7529 55.8518 40.2679C55.8518 42.1961 55.504 43.9865 54.8084 45.7081C58.2168 42.6781 60.1644 38.0642 59.608 33.106Z" fill="#9E8EAE"/>
</g>
<rect x="3" y="52.9595" width="85" height="27.1825" rx="1" fill="#FCAB0D"/>
<path d="M26.8017 71.0995C25.5137 71.0995 24.515 70.7681 23.8057 70.1055C23.1057 69.4428 22.7324 68.5095 22.6857 67.3055C22.6764 67.0535 22.6717 66.6428 22.6717 66.0735C22.6717 65.4948 22.6764 65.0748 22.6857 64.8135C22.7324 63.6188 23.1104 62.6901 23.8197 62.0275C24.5384 61.3555 25.5324 61.0195 26.8017 61.0195C27.6324 61.0195 28.3557 61.1641 28.9717 61.4535C29.5877 61.7335 30.0637 62.1208 30.3997 62.6155C30.7357 63.1008 30.913 63.6515 30.9317 64.2675V64.2955C30.9317 64.3701 30.899 64.4355 30.8337 64.4915C30.7777 64.5381 30.7124 64.5615 30.6377 64.5615H29.3077C29.1957 64.5615 29.1117 64.5381 29.0557 64.4915C28.9997 64.4448 28.953 64.3561 28.9157 64.2255C28.7664 63.6375 28.519 63.2268 28.1737 62.9935C27.8284 62.7508 27.3664 62.6295 26.7877 62.6295C25.4437 62.6295 24.7437 63.3808 24.6877 64.8835C24.6784 65.1355 24.6737 65.5228 24.6737 66.0455C24.6737 66.5681 24.6784 66.9648 24.6877 67.2355C24.7437 68.7381 25.4437 69.4895 26.7877 69.4895C27.3664 69.4895 27.8284 69.3681 28.1737 69.1255C28.5284 68.8828 28.7757 68.4721 28.9157 67.8935C28.9437 67.7628 28.9857 67.6741 29.0417 67.6275C29.107 67.5808 29.1957 67.5575 29.3077 67.5575H30.6377C30.7217 67.5575 30.7917 67.5855 30.8477 67.6415C30.913 67.6975 30.941 67.7675 30.9317 67.8515C30.913 68.4675 30.7357 69.0228 30.3997 69.5175C30.0637 70.0028 29.5877 70.3901 28.9717 70.6795C28.3557 70.9595 27.6324 71.0995 26.8017 71.0995ZM40.418 70.4835C40.446 70.5208 40.46 70.5721 40.46 70.6375C40.46 70.7215 40.4273 70.7961 40.362 70.8615C40.306 70.9268 40.2313 70.9595 40.138 70.9595H38.696C38.584 70.9595 38.5 70.9408 38.444 70.9035C38.388 70.8568 38.332 70.7961 38.276 70.7215L35.868 66.8715H34.538V70.6235C34.538 70.7168 34.5053 70.7961 34.44 70.8615C34.384 70.9268 34.3047 70.9595 34.202 70.9595H32.928C32.8347 70.9595 32.7553 70.9268 32.69 70.8615C32.6247 70.7961 32.592 70.7168 32.592 70.6235V61.5095C32.592 61.4068 32.62 61.3228 32.676 61.2575C32.7413 61.1921 32.8253 61.1595 32.928 61.1595H34.202C34.3047 61.1595 34.384 61.1921 34.44 61.2575C34.5053 61.3228 34.538 61.4068 34.538 61.5095V65.1215L35.77 65.1355L38.038 61.4115C38.1313 61.2435 38.2993 61.1595 38.542 61.1595H39.928C40.0213 61.1595 40.0913 61.1875 40.138 61.2435C40.194 61.2995 40.222 61.3695 40.222 61.4535C40.222 61.4908 40.2033 61.5468 40.166 61.6215L37.52 65.8915L40.418 70.4835ZM45.231 71.0995C43.9617 71.0995 42.9724 70.7775 42.263 70.1335C41.5537 69.4895 41.1804 68.5328 41.143 67.2635C41.1337 66.9928 41.129 66.5961 41.129 66.0735C41.129 65.5415 41.1337 65.1401 41.143 64.8695C41.1804 63.6281 41.563 62.6761 42.291 62.0135C43.019 61.3508 43.999 61.0195 45.231 61.0195C46.463 61.0195 47.443 61.3508 48.171 62.0135C48.9084 62.6761 49.2957 63.6281 49.333 64.8695C49.3517 65.4108 49.361 65.8121 49.361 66.0735C49.361 66.3255 49.3517 66.7221 49.333 67.2635C49.2864 68.5328 48.9084 69.4895 48.199 70.1335C47.4897 70.7775 46.5004 71.0995 45.231 71.0995ZM45.231 69.4895C45.8564 69.4895 46.3557 69.3028 46.729 68.9295C47.1024 68.5468 47.303 67.9681 47.331 67.1935C47.3497 66.6335 47.359 66.2555 47.359 66.0595C47.359 65.8448 47.3497 65.4668 47.331 64.9255C47.303 64.1508 47.1024 63.5768 46.729 63.2035C46.3557 62.8208 45.8564 62.6295 45.231 62.6295C44.615 62.6295 44.1204 62.8208 43.747 63.2035C43.3737 63.5768 43.173 64.1508 43.145 64.9255C43.1357 65.1961 43.131 65.5741 43.131 66.0595C43.131 66.5355 43.1357 66.9135 43.145 67.1935C43.173 67.9681 43.369 68.5468 43.733 68.9295C44.1064 69.3028 44.6057 69.4895 45.231 69.4895ZM51.5354 70.9595C51.4421 70.9595 51.3628 70.9268 51.2974 70.8615C51.2321 70.7961 51.1994 70.7168 51.1994 70.6235V61.5095C51.1994 61.4068 51.2274 61.3228 51.2834 61.2575C51.3488 61.1921 51.4328 61.1595 51.5354 61.1595H55.2874C56.4074 61.1595 57.2894 61.4255 57.9334 61.9575C58.5774 62.4801 58.8994 63.2501 58.8994 64.2675C58.8994 65.2848 58.5774 66.0548 57.9334 66.5775C57.2988 67.0908 56.4168 67.3475 55.2874 67.3475H53.2014V70.6235C53.2014 70.7168 53.1688 70.7961 53.1034 70.8615C53.0474 70.9268 52.9681 70.9595 52.8654 70.9595H51.5354ZM55.2174 65.7935C55.7588 65.7935 56.1741 65.6675 56.4634 65.4155C56.7528 65.1541 56.8974 64.7715 56.8974 64.2675C56.8974 63.7821 56.7574 63.4041 56.4774 63.1335C56.1974 62.8535 55.7774 62.7135 55.2174 62.7135H53.1734V65.7935H55.2174ZM64.1939 71.0995C62.9246 71.0995 61.9353 70.7775 61.2259 70.1335C60.5166 69.4895 60.1433 68.5328 60.1059 67.2635C60.0966 66.9928 60.0919 66.5961 60.0919 66.0735C60.0919 65.5415 60.0966 65.1401 60.1059 64.8695C60.1433 63.6281 60.5259 62.6761 61.2539 62.0135C61.9819 61.3508 62.9619 61.0195 64.1939 61.0195C65.4259 61.0195 66.4059 61.3508 67.1339 62.0135C67.8713 62.6761 68.2586 63.6281 68.2959 64.8695C68.3146 65.4108 68.3239 65.8121 68.3239 66.0735C68.3239 66.3255 68.3146 66.7221 68.2959 67.2635C68.2493 68.5328 67.8713 69.4895 67.1619 70.1335C66.4526 70.7775 65.4633 71.0995 64.1939 71.0995ZM64.1939 69.4895C64.8193 69.4895 65.3186 69.3028 65.6919 68.9295C66.0653 68.5468 66.2659 67.9681 66.2939 67.1935C66.3126 66.6335 66.3219 66.2555 66.3219 66.0595C66.3219 65.8448 66.3126 65.4668 66.2939 64.9255C66.2659 64.1508 66.0653 63.5768 65.6919 63.2035C65.3186 62.8208 64.8193 62.6295 64.1939 62.6295C63.5779 62.6295 63.0833 62.8208 62.7099 63.2035C62.3366 63.5768 62.1359 64.1508 62.1079 64.9255C62.0986 65.1961 62.0939 65.5741 62.0939 66.0595C62.0939 66.5355 62.0986 66.9135 62.1079 67.1935C62.1359 67.9681 62.3319 68.5468 62.6959 68.9295C63.0693 69.3028 63.5686 69.4895 64.1939 69.4895Z" fill="white"/>
</g>
<defs>
<clipPath id="clip0">
<rect width="100" height="80" fill="white"/>
</clipPath>
</defs>
</svg>
