<svg width="100" height="80" viewBox="0 0 100 80" fill="none" xmlns="http://www.w3.org/2000/svg">
<path d="M32.8642 18.0269L36.0106 24.8483L43.4705 25.7327L37.9552 30.8331L39.4192 38.2011L32.8642 34.5319L26.3092 38.2011L27.7732 30.8331L22.258 25.7327L29.7178 24.8483L32.8642 18.0269Z" stroke="#D411A1" stroke-width="1.4" stroke-linecap="round" stroke-linejoin="round"/>
<path d="M3 35.1192C3 35.1192 3.00006 58.231 3 68.2512C21.789 70.478 47.953 69.9213 62.376 68.2512C62.376 54.3342 62.376 35.1192 62.376 35.1192M3 35.1192L32.688 50.8825L62.376 35.1192M3 35.1192L8.71611 27.8435M62.376 35.1192C62.376 35.1192 57.5662 28.5968 56.8129 27.8435" stroke="#D411A1" stroke-width="1.4" stroke-linecap="round"/>
<path d="M8.86743 35.7612V10C21.1297 10.5662 41.8296 11.4697 56.8607 10C56.8607 23.1354 56.8607 32.6472 56.8607 35.7612" stroke="#D411A1" stroke-width="1.4" stroke-linecap="round" stroke-linejoin="round"/>
</svg>
